<svg width="21" height="21" viewBox="0 0 21 21" fill="none" xmlns="http://www.w3.org/2000/svg">
<path d="M12.2397 15.7496H8.30206C8.12726 15.7496 7.97405 15.8156 7.84281 15.9466C7.71144 16.078 7.64587 16.231 7.64587 16.406V20.3438C7.64587 20.5188 7.71167 20.672 7.84281 20.8031C7.97405 20.9341 8.12708 21 8.30206 21H12.2397C12.4145 21 12.5681 20.9343 12.6988 20.8031C12.8304 20.672 12.8961 20.5188 12.8961 20.3438V16.406C12.8961 16.231 12.8306 16.078 12.6988 15.9466C12.5681 15.8153 12.4145 15.7496 12.2397 15.7496Z" fill="#C4C4C4"/>
<path d="M17.4081 3.96225C16.9595 3.13602 16.38 2.43909 15.6688 1.87019C14.9582 1.30152 14.1592 0.847374 13.2734 0.508447C12.3875 0.169636 11.5071 0 10.6319 0C7.30705 0 4.76958 1.45472 3.01944 4.36421C2.93203 4.50632 2.90187 4.65941 2.92916 4.82353C2.95663 4.98742 3.04139 5.12418 3.18356 5.23354L5.87428 7.28451C6.01645 7.37185 6.15322 7.41559 6.28452 7.41559C6.48145 7.41559 6.65086 7.32795 6.7932 7.15297C7.58058 6.16872 8.16586 5.53982 8.54863 5.26623C9.01903 4.94914 9.60948 4.79066 10.3204 4.79066C10.9876 4.79066 11.5753 4.96569 12.0841 5.31542C12.5927 5.6655 12.8468 6.07022 12.8468 6.52959C12.8468 7.04344 12.7103 7.45926 12.4367 7.77646C12.1634 8.09355 11.7038 8.39967 11.0584 8.69509C10.2055 9.07786 9.42313 9.6713 8.71252 10.4752C8.00139 11.2792 7.64609 12.1351 7.64609 13.0429V13.7811C7.64609 13.9891 7.70321 14.1941 7.81825 14.3964C7.93318 14.599 8.07253 14.7 8.23671 14.7H12.1742C12.3493 14.7 12.5023 14.6154 12.6336 14.4454C12.7646 14.2763 12.8305 14.0985 12.8305 13.9128C12.8305 13.6395 12.9809 13.2727 13.2814 12.8135C13.5822 12.3542 13.9567 11.9983 14.4055 11.7467C14.8319 11.5061 15.1652 11.3123 15.4061 11.1644C15.6472 11.017 15.9614 10.7785 16.3498 10.4506C16.738 10.1224 17.0389 9.79698 17.2519 9.47443C17.4652 9.15182 17.6568 8.73336 17.8263 8.21917C17.9962 7.70515 18.0807 7.15274 18.0807 6.56218C18.0806 5.65435 17.8562 4.78761 17.4081 3.96225Z" fill="#C4C4C4"/>
</svg>
