<svg width="17" height="21" viewBox="0 0 17 21" fill="none" xmlns="http://www.w3.org/2000/svg">
<path d="M10.2397 15.7496H6.30206C6.12726 15.7496 5.97405 15.8156 5.84281 15.9466C5.71144 16.078 5.64587 16.231 5.64587 16.406V20.3438C5.64587 20.5188 5.71167 20.672 5.84281 20.8031C5.97405 20.9341 6.12708 21 6.30206 21H10.2397C10.4145 21 10.5681 20.9343 10.6988 20.8031C10.8304 20.672 10.8961 20.5188 10.8961 20.3438V16.406C10.8961 16.231 10.8306 16.078 10.6988 15.9466C10.5681 15.8153 10.4145 15.7496 10.2397 15.7496Z" fill="#0050F2"/>
<path d="M15.4081 3.96225C14.9595 3.13602 14.38 2.43909 13.6688 1.87019C12.9582 1.30152 12.1592 0.847374 11.2734 0.508447C10.3875 0.169636 9.50708 0 8.6319 0C5.30705 0 2.76958 1.45472 1.01944 4.36421C0.932034 4.50632 0.901865 4.65941 0.929161 4.82353C0.956629 4.98742 1.04139 5.12418 1.18356 5.23354L3.87428 7.28451C4.01645 7.37185 4.15322 7.41559 4.28452 7.41559C4.48145 7.41559 4.65086 7.32795 4.7932 7.15297C5.58058 6.16872 6.16586 5.53982 6.54863 5.26623C7.01903 4.94914 7.60948 4.79066 8.32044 4.79066C8.9876 4.79066 9.57535 4.96569 10.0841 5.31542C10.5927 5.6655 10.8468 6.07022 10.8468 6.52959C10.8468 7.04344 10.7103 7.45926 10.4367 7.77646C10.1634 8.09355 9.70384 8.39967 9.0584 8.69509C8.20551 9.07786 7.42313 9.6713 6.71252 10.4752C6.00139 11.2792 5.64609 12.1351 5.64609 13.0429V13.7811C5.64609 13.9891 5.70321 14.1941 5.81825 14.3964C5.93318 14.599 6.07253 14.7 6.23671 14.7H10.1742C10.3493 14.7 10.5023 14.6154 10.6336 14.4454C10.7646 14.2763 10.8305 14.0985 10.8305 13.9128C10.8305 13.6395 10.9809 13.2727 11.2814 12.8135C11.5822 12.3542 11.9567 11.9983 12.4055 11.7467C12.8319 11.5061 13.1652 11.3123 13.4061 11.1644C13.6472 11.017 13.9614 10.7785 14.3498 10.4506C14.738 10.1224 15.0389 9.79698 15.2519 9.47443C15.4652 9.15182 15.6568 8.73336 15.8263 8.21917C15.9962 7.70515 16.0807 7.15274 16.0807 6.56218C16.0806 5.65435 15.8562 4.78761 15.4081 3.96225Z" fill="#0050F2"/>
</svg>
