<svg width="130" height="130" viewBox="0 0 130 130" fill="none" xmlns="http://www.w3.org/2000/svg">
<path d="M1 8C1 4.13401 4.13401 1 8 1H122C125.866 1 129 4.13401 129 8V122C129 125.866 125.866 129 122 129H8C4.13401 129 1 125.866 1 122V8Z" fill="white" stroke="#0050F2" stroke-width="2"/>
<path d="M11.08 78.526C11.584 78.43 12.136 78.358 12.736 78.31C13.348 78.25 13.954 78.22 14.554 78.22C15.178 78.22 15.802 78.274 16.426 78.382C17.062 78.478 17.632 78.682 18.136 78.994C18.64 79.294 19.048 79.72 19.36 80.272C19.684 80.812 19.846 81.52 19.846 82.396C19.846 83.188 19.708 83.86 19.432 84.412C19.156 84.952 18.79 85.396 18.334 85.744C17.878 86.092 17.356 86.344 16.768 86.5C16.192 86.656 15.592 86.734 14.968 86.734C14.908 86.734 14.812 86.734 14.68 86.734C14.548 86.734 14.41 86.734 14.266 86.734C14.122 86.722 13.978 86.71 13.834 86.698C13.702 86.686 13.606 86.674 13.546 86.662V91H11.08V78.526ZM14.752 80.344C14.512 80.344 14.284 80.356 14.068 80.38C13.852 80.392 13.678 80.41 13.546 80.434V84.52C13.594 84.532 13.666 84.544 13.762 84.556C13.858 84.568 13.96 84.58 14.068 84.592C14.176 84.592 14.278 84.592 14.374 84.592C14.482 84.592 14.56 84.592 14.608 84.592C14.932 84.592 15.25 84.562 15.562 84.502C15.886 84.442 16.174 84.334 16.426 84.178C16.678 84.01 16.876 83.782 17.02 83.494C17.176 83.206 17.254 82.828 17.254 82.36C17.254 81.964 17.182 81.64 17.038 81.388C16.894 81.124 16.702 80.914 16.462 80.758C16.234 80.602 15.97 80.494 15.67 80.434C15.37 80.374 15.064 80.344 14.752 80.344ZM27.8764 90.226C27.5164 90.514 27.0244 90.76 26.4004 90.964C25.7884 91.156 25.1344 91.252 24.4384 91.252C22.9864 91.252 21.9244 90.832 21.2524 89.992C20.5804 89.14 20.2444 87.976 20.2444 86.5C20.2444 84.916 20.6224 83.728 21.3784 82.936C22.1344 82.144 23.1964 81.748 24.5644 81.748C25.0204 81.748 25.4644 81.808 25.8964 81.928C26.3284 82.048 26.7124 82.246 27.0484 82.522C27.3844 82.798 27.6544 83.17 27.8584 83.638C28.0624 84.106 28.1644 84.688 28.1644 85.384C28.1644 85.636 28.1464 85.906 28.1104 86.194C28.0864 86.482 28.0444 86.782 27.9844 87.094H22.5844C22.6204 87.85 22.8124 88.42 23.1604 88.804C23.5204 89.188 24.0964 89.38 24.8884 89.38C25.3804 89.38 25.8184 89.308 26.2024 89.164C26.5984 89.008 26.8984 88.852 27.1024 88.696L27.8764 90.226ZM24.5284 83.62C23.9164 83.62 23.4604 83.806 23.1604 84.178C22.8724 84.538 22.6984 85.024 22.6384 85.636H25.9864C26.0344 84.988 25.9324 84.49 25.6804 84.142C25.4404 83.794 25.0564 83.62 24.5284 83.62ZM34.785 84.196C34.413 84.064 34.077 83.998 33.777 83.998C33.357 83.998 33.003 84.112 32.715 84.34C32.439 84.556 32.253 84.838 32.157 85.186V91H29.817V82H31.635L31.905 83.188H31.977C32.181 82.744 32.457 82.402 32.805 82.162C33.153 81.922 33.561 81.802 34.029 81.802C34.341 81.802 34.695 81.868 35.091 82L34.785 84.196ZM43.7416 91C43.7416 92.308 43.3876 93.268 42.6796 93.88C41.9716 94.504 40.9816 94.816 39.7096 94.816C38.8456 94.816 38.1616 94.756 37.6576 94.636C37.1656 94.516 36.7936 94.39 36.5416 94.258L37.0276 92.404C37.3036 92.512 37.6216 92.62 37.9816 92.728C38.3536 92.836 38.8096 92.89 39.3496 92.89C40.1656 92.89 40.7176 92.71 41.0056 92.35C41.3056 92.002 41.4556 91.51 41.4556 90.874V90.298H41.3836C40.9636 90.862 40.2196 91.144 39.1516 91.144C37.9876 91.144 37.1176 90.784 36.5416 90.064C35.9776 89.344 35.6956 88.216 35.6956 86.68C35.6956 85.072 36.0796 83.854 36.8476 83.026C37.6156 82.198 38.7316 81.784 40.1956 81.784C40.9636 81.784 41.6476 81.838 42.2476 81.946C42.8596 82.054 43.3576 82.18 43.7416 82.324V91ZM39.7816 89.272C40.2376 89.272 40.5856 89.17 40.8256 88.966C41.0776 88.762 41.2696 88.456 41.4016 88.048V83.998C41.0296 83.842 40.5676 83.764 40.0156 83.764C39.4156 83.764 38.9476 83.992 38.6116 84.448C38.2756 84.892 38.1076 85.606 38.1076 86.59C38.1076 87.466 38.2516 88.132 38.5396 88.588C38.8276 89.044 39.2416 89.272 39.7816 89.272ZM48.028 82V87.112C48.028 87.844 48.112 88.372 48.28 88.696C48.46 89.02 48.802 89.182 49.306 89.182C49.75 89.182 50.116 89.05 50.404 88.786C50.704 88.522 50.926 88.198 51.07 87.814V82H53.41V88.264C53.41 88.756 53.434 89.242 53.482 89.722C53.53 90.19 53.602 90.616 53.698 91H51.934L51.52 89.668H51.448C51.172 90.124 50.788 90.502 50.296 90.802C49.804 91.102 49.222 91.252 48.55 91.252C48.094 91.252 47.686 91.192 47.326 91.072C46.966 90.952 46.666 90.754 46.426 90.478C46.186 90.202 46 89.83 45.868 89.362C45.748 88.894 45.688 88.306 45.688 87.598V82H48.028ZM60.9715 91V85.888C60.9715 85.156 60.8635 84.628 60.6475 84.304C60.4435 83.98 60.0895 83.818 59.5855 83.818C59.1415 83.818 58.7635 83.95 58.4515 84.214C58.1515 84.466 57.9355 84.784 57.8035 85.168V91H55.4635V82H57.3175L57.5875 83.188H57.6595C57.9355 82.804 58.3015 82.468 58.7575 82.18C59.2135 81.892 59.8015 81.748 60.5215 81.748C60.9655 81.748 61.3615 81.808 61.7095 81.928C62.0575 82.048 62.3515 82.246 62.5915 82.522C62.8315 82.798 63.0115 83.176 63.1315 83.656C63.2515 84.124 63.3115 84.706 63.3115 85.402V91H60.9715ZM64.3361 82H65.5781V80.308L67.9181 79.642V82H70.1141V83.98H67.9181V87.436C67.9181 88.06 67.9781 88.51 68.0981 88.786C68.2301 89.05 68.4701 89.182 68.8181 89.182C69.0581 89.182 69.2621 89.158 69.4301 89.11C69.6101 89.062 69.8081 88.99 70.0241 88.894L70.4381 90.694C70.1141 90.85 69.7361 90.982 69.3041 91.09C68.8721 91.198 68.4341 91.252 67.9901 91.252C67.1621 91.252 66.5501 91.042 66.1541 90.622C65.7701 90.19 65.5781 89.488 65.5781 88.516V83.98H64.3361V82ZM71.4935 82.522C71.9735 82.306 72.5435 82.138 73.2035 82.018C73.8635 81.886 74.5535 81.82 75.2735 81.82C75.8975 81.82 76.4195 81.898 76.8395 82.054C77.2595 82.198 77.5895 82.408 77.8295 82.684C78.0815 82.96 78.2555 83.29 78.3515 83.674C78.4595 84.058 78.5135 84.49 78.5135 84.97C78.5135 85.498 78.4955 86.032 78.4595 86.572C78.4235 87.1 78.3995 87.622 78.3875 88.138C78.3875 88.654 78.4055 89.158 78.4415 89.65C78.4775 90.13 78.5675 90.586 78.7115 91.018H76.8035L76.4255 89.776H76.3355C76.0955 90.148 75.7595 90.472 75.3275 90.748C74.9075 91.012 74.3615 91.144 73.6895 91.144C73.2695 91.144 72.8915 91.084 72.5555 90.964C72.2195 90.832 71.9315 90.652 71.6915 90.424C71.4515 90.184 71.2655 89.908 71.1335 89.596C71.0015 89.272 70.9355 88.912 70.9355 88.516C70.9355 87.964 71.0555 87.502 71.2955 87.13C71.5475 86.746 71.9015 86.44 72.3575 86.212C72.8255 85.972 73.3775 85.81 74.0135 85.726C74.6615 85.63 75.3815 85.6 76.1735 85.636C76.2575 84.964 76.2095 84.484 76.0295 84.196C75.8495 83.896 75.4475 83.746 74.8235 83.746C74.3555 83.746 73.8575 83.794 73.3295 83.89C72.8135 83.986 72.3875 84.112 72.0515 84.268L71.4935 82.522ZM74.4635 89.218C74.9315 89.218 75.3035 89.116 75.5795 88.912C75.8555 88.696 76.0595 88.468 76.1915 88.228V87.058C75.8195 87.022 75.4595 87.016 75.1115 87.04C74.7755 87.064 74.4755 87.118 74.2115 87.202C73.9475 87.286 73.7375 87.406 73.5815 87.562C73.4255 87.718 73.3475 87.916 73.3475 88.156C73.3475 88.492 73.4435 88.756 73.6355 88.948C73.8395 89.128 74.1155 89.218 74.4635 89.218ZM84.2032 88.516C84.2032 88.276 84.1012 88.084 83.8972 87.94C83.6932 87.796 83.4412 87.664 83.1412 87.544C82.8412 87.424 82.5112 87.304 82.1512 87.184C81.7912 87.052 81.4612 86.878 81.1612 86.662C80.8612 86.434 80.6092 86.152 80.4052 85.816C80.2012 85.468 80.0992 85.024 80.0992 84.484C80.0992 83.596 80.3632 82.918 80.8912 82.45C81.4192 81.982 82.1812 81.748 83.1772 81.748C83.8612 81.748 84.4792 81.82 85.0312 81.964C85.5832 82.108 86.0152 82.27 86.3272 82.45L85.8052 84.142C85.5292 84.034 85.1812 83.92 84.7612 83.8C84.3412 83.68 83.9152 83.62 83.4832 83.62C82.7872 83.62 82.4392 83.89 82.4392 84.43C82.4392 84.646 82.5412 84.82 82.7452 84.952C82.9492 85.084 83.2012 85.21 83.5012 85.33C83.8012 85.438 84.1312 85.558 84.4912 85.69C84.8512 85.822 85.1812 85.996 85.4812 86.212C85.7812 86.416 86.0332 86.686 86.2372 87.022C86.4412 87.358 86.5432 87.79 86.5432 88.318C86.5432 89.23 86.2492 89.95 85.6612 90.478C85.0852 90.994 84.2152 91.252 83.0512 91.252C82.4152 91.252 81.8152 91.168 81.2512 91C80.6992 90.844 80.2492 90.658 79.9012 90.442L80.5492 88.696C80.8252 88.852 81.1912 89.008 81.6472 89.164C82.1032 89.308 82.5712 89.38 83.0512 89.38C83.3992 89.38 83.6752 89.314 83.8792 89.182C84.0952 89.05 84.2032 88.828 84.2032 88.516ZM11.08 101.4H18.55V103.596H13.546V106.71H18.154V108.906H13.546V114H11.08V101.4ZM25.1346 107.196C24.7626 107.064 24.4266 106.998 24.1266 106.998C23.7066 106.998 23.3526 107.112 23.0646 107.34C22.7886 107.556 22.6026 107.838 22.5066 108.186V114H20.1666V105H21.9846L22.2546 106.188H22.3266C22.5306 105.744 22.8066 105.402 23.1546 105.162C23.5026 104.922 23.9106 104.802 24.3786 104.802C24.6906 104.802 25.0446 104.868 25.4406 105L25.1346 107.196ZM33.6772 113.226C33.3172 113.514 32.8252 113.76 32.2012 113.964C31.5892 114.156 30.9352 114.252 30.2392 114.252C28.7872 114.252 27.7252 113.832 27.0532 112.992C26.3812 112.14 26.0452 110.976 26.0452 109.5C26.0452 107.916 26.4232 106.728 27.1792 105.936C27.9352 105.144 28.9972 104.748 30.3652 104.748C30.8212 104.748 31.2652 104.808 31.6972 104.928C32.1292 105.048 32.5132 105.246 32.8492 105.522C33.1852 105.798 33.4552 106.17 33.6592 106.638C33.8632 107.106 33.9652 107.688 33.9652 108.384C33.9652 108.636 33.9472 108.906 33.9112 109.194C33.8872 109.482 33.8452 109.782 33.7852 110.094H28.3852C28.4212 110.85 28.6132 111.42 28.9612 111.804C29.3212 112.188 29.8972 112.38 30.6892 112.38C31.1812 112.38 31.6192 112.308 32.0032 112.164C32.3992 112.008 32.6992 111.852 32.9032 111.696L33.6772 113.226ZM30.3292 106.62C29.7172 106.62 29.2612 106.806 28.9612 107.178C28.6732 107.538 28.4992 108.024 28.4392 108.636H31.7872C31.8352 107.988 31.7332 107.49 31.4812 107.142C31.2412 106.794 30.8572 106.62 30.3292 106.62ZM43.1439 117.6H40.8039V113.226H40.7319C40.5279 113.538 40.2519 113.79 39.9039 113.982C39.5559 114.162 39.1059 114.252 38.5539 114.252C37.4379 114.252 36.5799 113.874 35.9799 113.118C35.3919 112.362 35.0979 111.216 35.0979 109.68C35.0979 108.072 35.4999 106.854 36.3039 106.026C37.1199 105.198 38.2839 104.784 39.7959 104.784C40.1199 104.784 40.4439 104.802 40.7679 104.838C41.0919 104.862 41.3979 104.904 41.6859 104.964C41.9859 105.012 42.2619 105.072 42.5139 105.144C42.7659 105.204 42.9759 105.264 43.1439 105.324V117.6ZM39.1839 112.272C39.6399 112.272 39.9879 112.17 40.2279 111.966C40.4799 111.762 40.6719 111.456 40.8039 111.048V106.998C40.6239 106.902 40.4199 106.842 40.1919 106.818C39.9639 106.782 39.7059 106.764 39.4179 106.764C38.7819 106.764 38.3019 107.004 37.9779 107.484C37.6659 107.964 37.5099 108.666 37.5099 109.59C37.5099 110.466 37.6539 111.132 37.9419 111.588C38.2299 112.044 38.6439 112.272 39.1839 112.272ZM47.4303 105V110.112C47.4303 110.844 47.5143 111.372 47.6823 111.696C47.8623 112.02 48.2043 112.182 48.7083 112.182C49.1523 112.182 49.5183 112.05 49.8063 111.786C50.1063 111.522 50.3283 111.198 50.4723 110.814V105H52.8123V111.264C52.8123 111.756 52.8363 112.242 52.8843 112.722C52.9323 113.19 53.0043 113.616 53.1003 114H51.3363L50.9223 112.668H50.8503C50.5743 113.124 50.1903 113.502 49.6983 113.802C49.2063 114.102 48.6243 114.252 47.9523 114.252C47.4963 114.252 47.0883 114.192 46.7283 114.072C46.3683 113.952 46.0683 113.754 45.8283 113.478C45.5883 113.202 45.4023 112.83 45.2703 112.362C45.1503 111.894 45.0903 111.306 45.0903 110.598V105H47.4303ZM62.0658 113.226C61.7058 113.514 61.2138 113.76 60.5898 113.964C59.9778 114.156 59.3238 114.252 58.6278 114.252C57.1758 114.252 56.1138 113.832 55.4418 112.992C54.7698 112.14 54.4338 110.976 54.4338 109.5C54.4338 107.916 54.8118 106.728 55.5678 105.936C56.3238 105.144 57.3858 104.748 58.7538 104.748C59.2098 104.748 59.6538 104.808 60.0858 104.928C60.5178 105.048 60.9018 105.246 61.2378 105.522C61.5738 105.798 61.8438 106.17 62.0478 106.638C62.2518 107.106 62.3538 107.688 62.3538 108.384C62.3538 108.636 62.3358 108.906 62.2998 109.194C62.2758 109.482 62.2338 109.782 62.1738 110.094H56.7738C56.8098 110.85 57.0018 111.42 57.3498 111.804C57.7098 112.188 58.2858 112.38 59.0778 112.38C59.5698 112.38 60.0078 112.308 60.3918 112.164C60.7878 112.008 61.0878 111.852 61.2918 111.696L62.0658 113.226ZM58.7178 106.62C58.1058 106.62 57.6498 106.806 57.3498 107.178C57.0618 107.538 56.8878 108.024 56.8278 108.636H60.1758C60.2238 107.988 60.1218 107.49 59.8698 107.142C59.6298 106.794 59.2458 106.62 58.7178 106.62ZM69.5145 114V108.888C69.5145 108.156 69.4065 107.628 69.1905 107.304C68.9865 106.98 68.6325 106.818 68.1285 106.818C67.6845 106.818 67.3065 106.95 66.9945 107.214C66.6945 107.466 66.4785 107.784 66.3465 108.168V114H64.0065V105H65.8605L66.1305 106.188H66.2025C66.4785 105.804 66.8445 105.468 67.3005 105.18C67.7565 104.892 68.3445 104.748 69.0645 104.748C69.5085 104.748 69.9045 104.808 70.2525 104.928C70.6005 105.048 70.8945 105.246 71.1345 105.522C71.3745 105.798 71.5545 106.176 71.6745 106.656C71.7945 107.124 71.8545 107.706 71.8545 108.402V114H69.5145ZM72.8791 105H74.1211V103.308L76.4611 102.642V105H78.6571V106.98H76.4611V110.436C76.4611 111.06 76.5211 111.51 76.6411 111.786C76.7731 112.05 77.0131 112.182 77.3611 112.182C77.6011 112.182 77.8051 112.158 77.9731 112.11C78.1531 112.062 78.3511 111.99 78.5671 111.894L78.9811 113.694C78.6571 113.85 78.2791 113.982 77.8471 114.09C77.4151 114.198 76.9771 114.252 76.5331 114.252C75.7051 114.252 75.0931 114.042 74.6971 113.622C74.3131 113.19 74.1211 112.488 74.1211 111.516V106.98H72.8791V105ZM87.2026 113.226C86.8426 113.514 86.3506 113.76 85.7266 113.964C85.1146 114.156 84.4606 114.252 83.7646 114.252C82.3126 114.252 81.2506 113.832 80.5786 112.992C79.9066 112.14 79.5706 110.976 79.5706 109.5C79.5706 107.916 79.9486 106.728 80.7046 105.936C81.4606 105.144 82.5226 104.748 83.8906 104.748C84.3466 104.748 84.7906 104.808 85.2226 104.928C85.6546 105.048 86.0386 105.246 86.3746 105.522C86.7106 105.798 86.9806 106.17 87.1846 106.638C87.3886 107.106 87.4906 107.688 87.4906 108.384C87.4906 108.636 87.4726 108.906 87.4366 109.194C87.4126 109.482 87.3706 109.782 87.3106 110.094H81.9106C81.9466 110.85 82.1386 111.42 82.4866 111.804C82.8466 112.188 83.4226 112.38 84.2146 112.38C84.7066 112.38 85.1446 112.308 85.5286 112.164C85.9246 112.008 86.2246 111.852 86.4286 111.696L87.2026 113.226ZM83.8546 106.62C83.2426 106.62 82.7866 106.806 82.4866 107.178C82.1986 107.538 82.0246 108.024 81.9646 108.636H85.3126C85.3606 107.988 85.2586 107.49 85.0066 107.142C84.7666 106.794 84.3826 106.62 83.8546 106.62ZM92.8692 111.516C92.8692 111.276 92.7672 111.084 92.5632 110.94C92.3592 110.796 92.1072 110.664 91.8072 110.544C91.5072 110.424 91.1772 110.304 90.8172 110.184C90.4572 110.052 90.1272 109.878 89.8272 109.662C89.5272 109.434 89.2752 109.152 89.0712 108.816C88.8672 108.468 88.7652 108.024 88.7652 107.484C88.7652 106.596 89.0292 105.918 89.5572 105.45C90.0852 104.982 90.8472 104.748 91.8432 104.748C92.5272 104.748 93.1452 104.82 93.6972 104.964C94.2492 105.108 94.6812 105.27 94.9932 105.45L94.4712 107.142C94.1952 107.034 93.8472 106.92 93.4272 106.8C93.0072 106.68 92.5812 106.62 92.1492 106.62C91.4532 106.62 91.1052 106.89 91.1052 107.43C91.1052 107.646 91.2072 107.82 91.4112 107.952C91.6152 108.084 91.8672 108.21 92.1672 108.33C92.4672 108.438 92.7972 108.558 93.1572 108.69C93.5172 108.822 93.8472 108.996 94.1472 109.212C94.4472 109.416 94.6992 109.686 94.9032 110.022C95.1072 110.358 95.2092 110.79 95.2092 111.318C95.2092 112.23 94.9152 112.95 94.3272 113.478C93.7512 113.994 92.8812 114.252 91.7172 114.252C91.0812 114.252 90.4812 114.168 89.9172 114C89.3652 113.844 88.9152 113.658 88.5672 113.442L89.2152 111.696C89.4912 111.852 89.8572 112.008 90.3132 112.164C90.7692 112.308 91.2372 112.38 91.7172 112.38C92.0652 112.38 92.3412 112.314 92.5452 112.182C92.7612 112.05 92.8692 111.828 92.8692 111.516Z" fill="#272727"/>
<path d="M84.7543 20.5002H87.004C87.4182 20.5002 87.7539 20.1644 87.7539 19.7502C87.7539 19.336 87.4182 19.0002 87.004 19.0002H84.7543C84.3401 19.0002 84.0044 19.336 84.0044 19.7502C84.0044 20.1644 84.3401 20.5002 84.7543 20.5002Z" fill="#0050F2"/>
<path d="M89.2537 19.7502C89.2537 20.1644 89.5894 20.5002 90.0036 20.5002H111.001C111.415 20.5002 111.751 20.1644 111.751 19.7502C111.751 19.336 111.415 19.0002 111.001 19.0002H90.0036C89.5894 19.0002 89.2537 19.336 89.2537 19.7502Z" fill="#0050F2"/>
<path d="M114.751 19.0002H114.001C113.587 19.0002 113.251 19.336 113.251 19.7502C113.251 20.1644 113.587 20.5002 114.001 20.5002H114.751C115.165 20.5002 115.501 20.1644 115.501 19.7502C115.501 19.336 115.165 19.0002 114.751 19.0002Z" fill="#0050F2"/>
<path d="M112.501 17.5002H114.751C115.165 17.5002 115.501 17.1644 115.501 16.7502C115.501 16.336 115.165 16.0002 114.751 16.0002H112.501C112.087 16.0002 111.751 16.336 111.751 16.7502C111.751 17.1644 112.087 17.5002 112.501 17.5002Z" fill="#0050F2"/>
<path d="M96.003 17.5002H109.501C109.915 17.5002 110.251 17.1644 110.251 16.7502C110.251 16.336 109.915 16.0002 109.501 16.0002H96.003C95.5888 16.0002 95.2531 16.336 95.2531 16.7502C95.2531 17.1644 95.5888 17.5002 96.003 17.5002Z" fill="#0050F2"/>
<path d="M84.7543 17.5002H93.0033C93.4175 17.5002 93.7532 17.1644 93.7532 16.7502C93.7532 16.336 93.4175 16.0002 93.0033 16.0002H84.7543C84.3401 16.0002 84.0044 16.336 84.0044 16.7502C84.0044 17.1644 84.3401 17.5002 84.7543 17.5002Z" fill="#0050F2"/>
<path d="M118.5 10.0002H83.2544C79.6369 9.9736 76.4301 12.3228 75.3643 15.7802C74.2985 19.2377 75.626 22.985 78.6305 25.0002H76.5053C75.6769 25.0002 75.0054 25.6717 75.0054 26.5001V28.0001C75.0054 28.8286 75.6769 29.5001 76.5053 29.5001V37.0001C75.6769 37.0001 75.0054 37.6717 75.0054 38.5001V40.0001C75.0054 40.8285 75.6769 41.5001 76.5053 41.5001H87.5619C89.1359 44.4761 91.9563 46.5938 95.253 47.275V52.75C95.2591 53.9901 96.2628 54.9938 97.5027 55C98.7452 55 99.7524 53.9926 99.7524 52.75V47.275C103.049 46.5938 105.869 44.4761 107.444 41.5001H111.519C115.907 41.5562 119.595 38.2169 119.975 33.8441C120.15 31.456 119.276 29.1101 117.583 27.4174C117.243 27.0806 116.875 26.7737 116.483 26.5001H118.5C119.329 26.5001 120 25.8286 120 25.0002V23.5002C120 22.6717 119.329 22.0002 118.5 22.0002V14.5002C119.329 14.5002 120 13.8286 120 13.0002V11.5002C120 10.6718 119.329 10.0002 118.5 10.0002ZM76.5053 26.5001H91.9151C91.1832 26.9225 90.5011 27.4256 89.8814 28.0001H76.5053V26.5001ZM78.0051 29.5001H88.5255C88.165 29.9737 87.8427 30.4753 87.5619 31.0001H85.5042C85.09 31.0001 84.7543 31.3359 84.7543 31.7501C84.7543 32.1643 85.09 32.5001 85.5042 32.5001H86.9102C86.732 32.9894 86.5884 33.4906 86.4805 34.0001H84.0043C83.5902 34.0001 83.2544 34.3359 83.2544 34.7501C83.2544 35.1643 83.5902 35.5001 84.0043 35.5001H86.2923C86.2758 35.7491 86.2541 35.9966 86.2541 36.2501C86.2541 36.5036 86.2758 36.7511 86.2923 37.0001H78.0051V29.5001ZM76.5053 40.0001V38.5001H86.479C86.5869 39.0095 86.7305 39.5108 86.9087 40.0001H76.5053ZM98.2526 52.75C98.2526 53.1642 97.9169 53.5 97.5027 53.5C97.3007 53.5007 97.1074 53.4176 96.9688 53.2705C96.8288 53.1337 96.7508 52.9457 96.7528 52.75V47.4618C97.0018 47.4783 97.2492 47.5 97.5027 47.5C97.7562 47.5 98.0037 47.4783 98.2526 47.4618V52.75ZM97.5027 46C92.1186 46 87.7539 41.6348 87.7539 36.2501C87.7539 30.8653 92.1186 26.5001 97.5027 26.5001C102.887 26.5001 107.252 30.8653 107.252 36.2501C107.245 41.6323 102.884 45.9938 97.5027 46ZM108.713 35.5001H110.251C110.665 35.5001 111.001 35.1643 111.001 34.7501C111.001 34.3359 110.665 34.0001 110.251 34.0001H108.526C108.419 33.4906 108.275 32.9894 108.097 32.5001H110.251C110.665 32.5001 111.001 32.1643 111.001 31.7501C111.001 31.3359 110.665 31.0001 110.251 31.0001H107.444C107.163 30.4753 106.84 29.9737 106.48 29.5001H111.751C112.832 29.4997 113.861 29.9661 114.573 30.7797C115.286 31.5932 115.612 32.6747 115.469 33.7466C115.174 35.6488 113.518 37.0393 111.594 37.0001H108.713C108.73 36.7511 108.751 36.5036 108.751 36.2501C108.751 35.9966 108.73 35.7491 108.713 35.5001ZM116.523 28.4779C117.909 29.8637 118.623 31.7843 118.479 33.7391C118.156 37.3269 115.12 40.0578 111.519 40.0001H108.095C108.273 39.5108 108.417 39.0095 108.525 38.5001H111.594C114.271 38.5373 116.564 36.5874 116.957 33.9379C117.153 32.4386 116.695 30.9273 115.698 29.7904C114.701 28.6535 113.263 28.0011 111.751 28.0001H105.124C104.504 27.4256 103.822 26.9225 103.09 26.5001L111.751 26.5001C113.542 26.496 115.26 27.2081 116.523 28.4779ZM117 22.0002H83.4089C81.4846 22.0398 79.8286 20.6478 79.5364 18.7452C79.3955 17.6739 79.7228 16.5938 80.4347 15.781C81.1466 14.9683 82.174 14.5015 83.2544 14.5002H117V22.0002ZM118.5 13.0002H83.2544C81.7428 13 80.3044 13.6516 79.3075 14.7882C78.3107 15.9248 77.8521 17.436 78.0493 18.9349C78.4374 21.5861 80.7301 23.539 83.4089 23.5002H118.5V25.0002H83.4877C79.8857 25.0536 76.8502 22.3239 76.5218 18.7362C76.3868 16.8662 77.0355 15.0244 78.3126 13.6519C79.5896 12.2794 81.3798 11.4999 83.2544 11.5002H118.5V13.0002Z" fill="#0050F2"/>
<path d="M81.0047 34.0001H80.2548C79.8406 34.0001 79.5049 34.3359 79.5049 34.7501C79.5049 35.1643 79.8406 35.5001 80.2548 35.5001H81.0047C81.4189 35.5001 81.7546 35.1643 81.7546 34.7501C81.7546 34.3359 81.4189 34.0001 81.0047 34.0001Z" fill="#0050F2"/>
<path d="M82.5045 31.0001H80.2548C79.8406 31.0001 79.5049 31.3359 79.5049 31.7501C79.5049 32.1643 79.8406 32.5001 80.2548 32.5001H82.5045C82.9187 32.5001 83.2544 32.1643 83.2544 31.7501C83.2544 31.3359 82.9187 31.0001 82.5045 31.0001Z" fill="#0050F2"/>
<path d="M97.5027 28.0001C92.9469 28.0001 89.2537 31.6938 89.2537 36.2501C89.2537 40.8064 92.9469 44.5 97.5027 44.5C102.058 44.5 105.752 40.8064 105.752 36.2501C105.746 31.696 102.056 28.0055 97.5027 28.0001ZM97.5027 43C93.7752 43 90.7535 39.978 90.7535 36.2501C90.7535 32.5222 93.7752 29.5001 97.5027 29.5001C101.23 29.5001 104.252 32.5222 104.252 36.2501C104.247 39.9761 101.228 42.9955 97.5027 43Z" fill="#0050F2"/>
<path d="M98.7828 31.9699C98.49 31.6771 98.0153 31.6771 97.7224 31.9699L93.223 36.4699C93.028 36.6582 92.9498 36.937 93.0185 37.1992C93.0871 37.4615 93.2919 37.6663 93.5541 37.7349C93.8162 37.8035 94.0951 37.7253 94.2833 37.5304L98.7828 33.0304C99.0756 32.7375 99.0756 32.2628 98.7828 31.9699Z" fill="#0050F2"/>
<path d="M100.722 34.9699L96.2226 39.4698C96.0277 39.6582 95.9495 39.937 96.0181 40.1992C96.0867 40.4614 96.2915 40.6662 96.5537 40.7349C96.8159 40.8035 97.0947 40.7253 97.283 40.5303L101.782 36.0304C102.067 35.7361 102.063 35.2683 101.773 34.979C101.484 34.6897 101.016 34.6856 100.722 34.9699Z" fill="#0050F2"/>
</svg>
