<svg width="26" height="26" viewBox="0 0 26 26" fill="none" xmlns="http://www.w3.org/2000/svg">
<g clip-path="url(#clip0)">
<path d="M13 6.83124L3.72721 14.4757C3.72721 14.4865 3.72449 14.5023 3.71907 14.524C3.71376 14.5454 3.71094 14.561 3.71094 14.5721V22.3129C3.71094 22.5924 3.81312 22.8346 4.01743 23.0386C4.22168 23.2426 4.46355 23.3453 4.74309 23.3453H10.9356V17.1525H15.0645V23.3456H21.2569C21.5364 23.3456 21.7786 23.2431 21.9825 23.0386C22.1868 22.8348 22.2894 22.5924 22.2894 22.3129V14.5721C22.2894 14.5292 22.2835 14.4967 22.2731 14.4757L13 6.83124Z" fill="#0050F2"/>
<path d="M25.8206 12.7339L22.2891 9.79883V3.21902C22.2891 3.0686 22.2407 2.9449 22.1437 2.84808C22.0474 2.75138 21.9237 2.70303 21.773 2.70303H18.6767C18.5261 2.70303 18.4024 2.75138 18.3056 2.84808C18.2089 2.9449 18.1606 3.06866 18.1606 3.21902V6.36373L14.2258 3.07374C13.8821 2.79419 13.4735 2.65445 13.0004 2.65445C12.5273 2.65445 12.1188 2.79419 11.7748 3.07374L0.179202 12.7339C0.0717111 12.8198 0.0127971 12.9353 0.00183901 13.0805C-0.00906262 13.2256 0.0285 13.3523 0.11464 13.4597L1.11448 14.6531C1.20062 14.7498 1.31337 14.809 1.45317 14.8306C1.58224 14.8414 1.71131 14.8037 1.84037 14.7177L13 5.41223L24.1598 14.7177C24.246 14.7927 24.3587 14.8301 24.4985 14.8301H24.547C24.6865 14.8089 24.799 14.7494 24.8856 14.6529L25.8856 13.4596C25.9716 13.352 26.0092 13.2255 25.9981 13.0803C25.987 12.9355 25.9279 12.8199 25.8206 12.7339Z" fill="#0050F2"/>
</g>
<defs>
<clipPath id="clip0">
<rect width="26" height="26" fill="white"/>
</clipPath>
</defs>
</svg>
