<svg width="27" height="21" viewBox="0 0 27 21" fill="none" xmlns="http://www.w3.org/2000/svg">
<path d="M23.9299 8.6604L13.8895 12.4891L3.84946 8.71576L3.27751 13.9546C3.2508 14.1699 3.32619 14.3855 3.48114 14.5374C3.63637 14.689 3.85308 14.7597 4.06784 14.7288C4.61754 14.6487 5.17975 14.6081 5.73836 14.6081C9.07494 14.6081 12.0604 16.0215 13.1674 18.1252C13.2875 18.3538 13.5245 18.4968 13.7827 18.4968H13.9958C14.254 18.4968 14.491 18.3538 14.6111 18.1255C15.7183 16.0218 18.7036 14.6083 22.0396 14.6083C22.5996 14.6083 23.1618 14.6489 23.7107 14.7291C23.7443 14.7343 23.8147 14.736 23.8167 14.7363C24.2008 14.7363 24.5405 14.4473 24.5121 14.0408C24.5082 13.981 23.9299 8.6604 23.9299 8.6604Z" fill="#0050F2"/>
<path d="M26.5491 4.71709L14.1344 0.0446491C13.9764 -0.014883 13.8025 -0.014883 13.6442 0.0446491L1.19782 4.72933C0.926868 4.83142 0.747437 5.09069 0.747437 5.38029V13.8386H2.30779V6.42516L13.6445 10.6917C13.8025 10.7513 13.9761 10.7513 14.1347 10.6917L26.5493 6.01901C26.8203 5.91691 26.9997 5.65764 26.9997 5.36805C26.9997 5.07845 26.8197 4.81918 26.5491 4.71709Z" fill="#0050F2"/>
<path d="M0.00381232 19.3631C-0.0167736 19.5593 0.0466532 19.7548 0.178514 19.9014C0.310375 20.0478 0.498152 20.1312 0.695387 20.1312H2.35951C2.55646 20.1312 2.74452 20.0475 2.87638 19.9011C3.00824 19.7548 3.07194 19.5593 3.05108 19.3629L2.5968 15.0501H0.457536L0.00381232 19.3631Z" fill="#0050F2"/>
</svg>
