<svg width="130" height="130" viewBox="0 0 130 130" fill="none" xmlns="http://www.w3.org/2000/svg">
<path d="M1 8C1 4.13401 4.13401 1 8 1H122C125.866 1 129 4.13401 129 8V122C129 125.866 125.866 129 122 129H8C4.13401 129 1 125.866 1 122V8Z" fill="white" stroke="#0050F2" stroke-width="2"/>
<path d="M108.668 24.2171L110.154 26.6935H120V25.2419H118.548V20.8871H117.097V25.2419H115.645V19.4355H114.194V25.2419H112.742V22.3387H111.29V25.2419H110.975L109.101 22.1188C109.069 21.4619 108.893 20.8414 108.6 20.2927C109.391 19.4848 109.839 18.4128 109.839 17.2581C109.839 14.8564 107.886 12.9032 105.484 12.9032C105.4 12.9032 105.317 12.9112 105.234 12.9156C104.634 11.1932 103.007 10 101.129 10C99.6165 10 98.281 10.7752 97.5 11.9502C96.719 10.7752 95.3835 10 93.871 10C91.6986 10 89.8928 11.599 89.5684 13.6813C88.0471 13.9186 86.7922 14.95 86.2217 16.3334L84.0581 13.629H75V15.0806H83.3613L85.9009 18.2553C85.9408 18.8933 86.1143 19.495 86.4002 20.0299C85.6091 20.8377 85.1613 21.9098 85.1613 23.0645C85.1613 25.4662 87.1144 27.4194 89.5161 27.4194C89.5989 27.4194 89.6787 27.4114 89.76 27.407C89.9538 28.0007 90.2644 28.606 90.6898 29.1279C90.2078 29.3812 89.8348 29.8044 89.6504 30.3226H81.361L75 33.5031V46.7389L80.8065 43.8356V51.371C80.8065 53.372 82.4344 55 84.4355 55H110.565C112.566 55 114.194 53.372 114.194 51.371V43.8356L120 46.7389V33.5031L113.639 30.3226H105.35C105.167 29.808 104.798 29.387 104.32 29.133C104.895 28.4427 105.301 27.5652 105.435 26.6406C106.869 26.4163 108.058 25.4815 108.668 24.2171ZM103.306 30.3226C103.706 30.3226 104.032 30.6485 104.032 31.0484C104.032 31.4483 103.706 31.7742 103.306 31.7742H91.6935C91.2936 31.7742 90.9677 31.4483 90.9677 31.0484C90.9677 30.6485 91.2936 30.3226 91.6935 30.3226H103.306ZM112.742 41.9355H101.328C102.538 40.8707 103.306 39.3153 103.306 37.5806V36.129C104.507 36.129 105.484 35.1521 105.484 33.9516C105.484 33.392 105.265 32.8861 104.918 32.5C105.106 32.2902 105.254 32.0456 105.35 31.7742H112.742V41.9355ZM82.2581 31.7742H89.6497C89.7462 32.0456 89.8928 32.2902 90.0823 32.5C89.7339 32.8861 89.5161 33.392 89.5161 33.9516C89.5161 35.1521 90.4931 36.129 91.6935 36.129V37.5806C91.6935 39.3153 92.4622 40.8707 93.6721 41.9355H82.2581V31.7742ZM104.032 33.9516C104.032 34.3515 103.706 34.6774 103.306 34.6774H91.6935C91.2936 34.6774 90.9677 34.3515 90.9677 33.9516C90.9677 33.5517 91.2936 33.2258 91.6935 33.2258H103.306C103.706 33.2258 104.032 33.5517 104.032 33.9516ZM93.1452 37.5806V36.129H101.855V37.5806C101.855 39.9823 99.9017 41.9355 97.5 41.9355C95.0983 41.9355 93.1452 39.9823 93.1452 37.5806ZM76.4516 44.3902V34.4002L80.8065 32.2227V42.2127L76.4516 44.3902ZM110.565 53.5484H84.4355C83.235 53.5484 82.2581 52.5715 82.2581 51.371V43.3871H112.742V51.371C112.742 52.5715 111.765 53.5484 110.565 53.5484ZM118.548 44.3902L114.194 42.2127V32.2227L118.548 34.4002V44.3902ZM104.032 25.2419V25.9677C104.032 27.1552 103.322 28.3963 102.398 28.871H92.6001C92.0035 28.5574 91.4678 27.8723 91.1826 27.0869C92.759 26.4308 93.871 24.8761 93.871 23.0645H92.4194C92.4194 24.6656 91.1173 25.9677 89.5161 25.9677C87.915 25.9677 86.6129 24.6656 86.6129 23.0645C86.6129 22.3627 86.8604 21.7073 87.3031 21.1883C88.0783 21.9003 89.109 22.3387 90.2419 22.3387V20.8871C88.6408 20.8871 87.3387 19.585 87.3387 17.9839C87.3387 16.3827 88.6408 15.0806 90.2419 15.0806H90.9677V14.3548C90.9677 12.7537 92.2698 11.4516 93.871 11.4516C95.4721 11.4516 96.7742 12.7537 96.7742 14.3548H98.2258C98.2258 12.7537 99.5279 11.4516 101.129 11.4516C102.324 11.4516 103.363 12.1774 103.804 13.2407C102.234 13.8998 101.129 15.4523 101.129 17.2581H102.581C102.581 15.6569 103.883 14.3548 105.484 14.3548C107.085 14.3548 108.387 15.6569 108.387 17.2581C108.387 17.9599 108.14 18.6153 107.697 19.1343C106.922 18.4223 105.891 17.9839 104.758 17.9839V19.4355C106.359 19.4355 107.661 20.7376 107.661 22.3387C107.661 23.9398 106.359 25.2419 104.758 25.2419H104.032Z" fill="#0050F2"/>
<path d="M109.24 47.5764H103.434C102.633 47.5764 101.982 48.2275 101.982 49.028V50.4796C101.982 51.2802 102.633 51.9313 103.434 51.9313H109.24C110.041 51.9313 110.692 51.2802 110.692 50.4796V49.028C110.692 48.2275 110.041 47.5764 109.24 47.5764ZM109.24 50.4796H103.434V49.028H109.24V50.4796Z" fill="#0050F2"/>
<path d="M76.4517 16.5323H83.7097V17.984H76.4517V16.5323Z" fill="#0050F2"/>
<path d="M76.4517 19.4355H83.7097V20.8872H76.4517V19.4355Z" fill="#0050F2"/>
<path d="M82.2581 22.3386H83.7097V23.7902H82.2581V22.3386Z" fill="#0050F2"/>
<path d="M79.3549 22.3386H80.8065V23.7902H79.3549V22.3386Z" fill="#0050F2"/>
<path d="M76.4517 22.3386H77.9033V23.7902H76.4517V22.3386Z" fill="#0050F2"/>
<path d="M83.7097 47.7419H85.1613V49.1936H83.7097V47.7419Z" fill="#0050F2"/>
<path d="M83.7097 50.6451H85.1613V52.0968H83.7097V50.6451Z" fill="#0050F2"/>
<path d="M83.7097 44.8386H85.1613V46.2902H83.7097V44.8386Z" fill="#0050F2"/>
<path d="M98.9516 24.5161H97.5C97.5 26.1172 98.8021 27.4193 100.403 27.4193V25.9677C99.6027 25.9677 98.9516 25.3167 98.9516 24.5161Z" fill="#0050F2"/>
<path d="M98.2257 21.613C97.4252 21.613 96.7741 20.9619 96.7741 20.1614H95.3225C95.3225 21.7625 96.6246 23.0646 98.2257 23.0646V21.613Z" fill="#0050F2"/>
<path d="M99.6774 16.5323V15.0807C98.0763 15.0807 96.7742 16.3828 96.7742 17.9839H98.2258C98.2258 17.1833 98.8768 16.5323 99.6774 16.5323Z" fill="#0050F2"/>
<path d="M100.403 23.7904H101.855C101.855 22.9899 102.506 22.3388 103.306 22.3388V20.8872C101.705 20.8872 100.403 22.1893 100.403 23.7904Z" fill="#0050F2"/>
<path d="M109.839 33.2258H111.29V34.6774H109.839V33.2258Z" fill="#0050F2"/>
<path d="M109.839 36.129H111.29V37.5806H109.839V36.129Z" fill="#0050F2"/>
<path d="M109.839 39.0323H111.29V40.484H109.839V39.0323Z" fill="#0050F2"/>
<path d="M90.2419 17.2581H88.7903C88.7903 18.8592 90.0924 20.1613 91.6935 20.1613V18.7097C90.8929 18.7097 90.2419 18.0586 90.2419 17.2581Z" fill="#0050F2"/>
<path d="M95.3225 12.9032C93.7214 12.9032 92.4193 14.2053 92.4193 15.8064H93.8709C93.8709 15.0059 94.522 14.3548 95.3225 14.3548V12.9032Z" fill="#0050F2"/>
<path d="M17.29 88.21H13.42L12.466 91H10L14.536 78.31H16.354L20.89 91H18.298L17.29 88.21ZM14.05 86.23H16.75L15.814 83.422L15.436 81.442H15.346L14.968 83.44L14.05 86.23ZM24.3364 87.976C24.3364 88.396 24.3904 88.702 24.4984 88.894C24.6064 89.086 24.7804 89.182 25.0204 89.182C25.1644 89.182 25.3024 89.17 25.4344 89.146C25.5784 89.122 25.7524 89.068 25.9564 88.984L26.2084 90.82C26.0164 90.916 25.7224 91.012 25.3264 91.108C24.9304 91.204 24.5224 91.252 24.1024 91.252C23.4184 91.252 22.8964 91.096 22.5364 90.784C22.1764 90.46 21.9964 89.932 21.9964 89.2V78.4H24.3364V87.976ZM34.8295 91C34.8295 92.308 34.4755 93.268 33.7675 93.88C33.0595 94.504 32.0695 94.816 30.7975 94.816C29.9335 94.816 29.2495 94.756 28.7455 94.636C28.2535 94.516 27.8815 94.39 27.6295 94.258L28.1155 92.404C28.3915 92.512 28.7095 92.62 29.0695 92.728C29.4415 92.836 29.8975 92.89 30.4375 92.89C31.2535 92.89 31.8055 92.71 32.0935 92.35C32.3935 92.002 32.5435 91.51 32.5435 90.874V90.298H32.4715C32.0515 90.862 31.3075 91.144 30.2395 91.144C29.0755 91.144 28.2055 90.784 27.6295 90.064C27.0655 89.344 26.7835 88.216 26.7835 86.68C26.7835 85.072 27.1675 83.854 27.9355 83.026C28.7035 82.198 29.8195 81.784 31.2835 81.784C32.0515 81.784 32.7355 81.838 33.3355 81.946C33.9475 82.054 34.4455 82.18 34.8295 82.324V91ZM30.8695 89.272C31.3255 89.272 31.6735 89.17 31.9135 88.966C32.1655 88.762 32.3575 88.456 32.4895 88.048V83.998C32.1175 83.842 31.6555 83.764 31.1035 83.764C30.5035 83.764 30.0355 83.992 29.6995 84.448C29.3635 84.892 29.1955 85.606 29.1955 86.59C29.1955 87.466 29.3395 88.132 29.6275 88.588C29.9155 89.044 30.3295 89.272 30.8695 89.272ZM39.1158 82V87.112C39.1158 87.844 39.1998 88.372 39.3678 88.696C39.5478 89.02 39.8898 89.182 40.3938 89.182C40.8378 89.182 41.2038 89.05 41.4918 88.786C41.7918 88.522 42.0138 88.198 42.1578 87.814V82H44.4978V88.264C44.4978 88.756 44.5218 89.242 44.5698 89.722C44.6178 90.19 44.6898 90.616 44.7858 91H43.0218L42.6078 89.668H42.5358C42.2598 90.124 41.8758 90.502 41.3838 90.802C40.8918 91.102 40.3098 91.252 39.6378 91.252C39.1818 91.252 38.7738 91.192 38.4138 91.072C38.0538 90.952 37.7538 90.754 37.5138 90.478C37.2738 90.202 37.0878 89.83 36.9558 89.362C36.8358 88.894 36.7758 88.306 36.7758 87.598V82H39.1158ZM51.6634 91V86.104C51.6634 85.276 51.5854 84.688 51.4294 84.34C51.2734 83.992 50.9494 83.818 50.4574 83.818C50.0494 83.818 49.7194 83.932 49.4674 84.16C49.2154 84.376 49.0234 84.658 48.8914 85.006V91H46.5514V82H48.3694L48.6394 83.188H48.7114C48.9874 82.804 49.3354 82.468 49.7554 82.18C50.1874 81.892 50.7394 81.748 51.4114 81.748C51.9874 81.748 52.4554 81.868 52.8154 82.108C53.1874 82.336 53.4754 82.726 53.6794 83.278C53.9554 82.81 54.3094 82.438 54.7414 82.162C55.1734 81.886 55.6954 81.748 56.3074 81.748C56.8114 81.748 57.2374 81.808 57.5854 81.928C57.9454 82.048 58.2334 82.258 58.4494 82.558C58.6774 82.846 58.8454 83.236 58.9534 83.728C59.0614 84.22 59.1154 84.844 59.1154 85.6V91H56.7754V85.942C56.7754 85.234 56.6974 84.706 56.5414 84.358C56.3974 83.998 56.0674 83.818 55.5514 83.818C55.1314 83.818 54.7954 83.932 54.5434 84.16C54.3034 84.388 54.1234 84.7 54.0034 85.096V91H51.6634ZM60.9818 82.522C61.4618 82.306 62.0318 82.138 62.6918 82.018C63.3518 81.886 64.0418 81.82 64.7618 81.82C65.3858 81.82 65.9078 81.898 66.3278 82.054C66.7478 82.198 67.0778 82.408 67.3178 82.684C67.5698 82.96 67.7438 83.29 67.8398 83.674C67.9478 84.058 68.0018 84.49 68.0018 84.97C68.0018 85.498 67.9838 86.032 67.9478 86.572C67.9118 87.1 67.8878 87.622 67.8758 88.138C67.8758 88.654 67.8938 89.158 67.9298 89.65C67.9658 90.13 68.0558 90.586 68.1998 91.018H66.2918L65.9138 89.776H65.8238C65.5838 90.148 65.2478 90.472 64.8158 90.748C64.3958 91.012 63.8498 91.144 63.1778 91.144C62.7578 91.144 62.3798 91.084 62.0438 90.964C61.7078 90.832 61.4198 90.652 61.1798 90.424C60.9398 90.184 60.7538 89.908 60.6218 89.596C60.4898 89.272 60.4238 88.912 60.4238 88.516C60.4238 87.964 60.5438 87.502 60.7838 87.13C61.0358 86.746 61.3898 86.44 61.8458 86.212C62.3138 85.972 62.8658 85.81 63.5018 85.726C64.1498 85.63 64.8698 85.6 65.6618 85.636C65.7458 84.964 65.6978 84.484 65.5178 84.196C65.3378 83.896 64.9358 83.746 64.3118 83.746C63.8438 83.746 63.3458 83.794 62.8178 83.89C62.3018 83.986 61.8758 84.112 61.5398 84.268L60.9818 82.522ZM63.9518 89.218C64.4198 89.218 64.7918 89.116 65.0678 88.912C65.3438 88.696 65.5478 88.468 65.6798 88.228V87.058C65.3078 87.022 64.9478 87.016 64.5998 87.04C64.2638 87.064 63.9638 87.118 63.6998 87.202C63.4358 87.286 63.2258 87.406 63.0698 87.562C62.9138 87.718 62.8358 87.916 62.8358 88.156C62.8358 88.492 62.9318 88.756 63.1238 88.948C63.3278 89.128 63.6038 89.218 63.9518 89.218ZM73.6915 88.516C73.6915 88.276 73.5895 88.084 73.3855 87.94C73.1815 87.796 72.9295 87.664 72.6295 87.544C72.3295 87.424 71.9995 87.304 71.6395 87.184C71.2795 87.052 70.9495 86.878 70.6495 86.662C70.3495 86.434 70.0975 86.152 69.8935 85.816C69.6895 85.468 69.5875 85.024 69.5875 84.484C69.5875 83.596 69.8515 82.918 70.3795 82.45C70.9075 81.982 71.6695 81.748 72.6655 81.748C73.3495 81.748 73.9675 81.82 74.5195 81.964C75.0715 82.108 75.5035 82.27 75.8155 82.45L75.2935 84.142C75.0175 84.034 74.6695 83.92 74.2495 83.8C73.8295 83.68 73.4035 83.62 72.9715 83.62C72.2755 83.62 71.9275 83.89 71.9275 84.43C71.9275 84.646 72.0295 84.82 72.2335 84.952C72.4375 85.084 72.6895 85.21 72.9895 85.33C73.2895 85.438 73.6195 85.558 73.9795 85.69C74.3395 85.822 74.6695 85.996 74.9695 86.212C75.2695 86.416 75.5215 86.686 75.7255 87.022C75.9295 87.358 76.0315 87.79 76.0315 88.318C76.0315 89.23 75.7375 89.95 75.1495 90.478C74.5735 90.994 73.7035 91.252 72.5395 91.252C71.9035 91.252 71.3035 91.168 70.7395 91C70.1875 90.844 69.7375 90.658 69.3895 90.442L70.0375 88.696C70.3135 88.852 70.6795 89.008 71.1355 89.164C71.5915 89.308 72.0595 89.38 72.5395 89.38C72.8875 89.38 73.1635 89.314 73.3675 89.182C73.5835 89.05 73.6915 88.828 73.6915 88.516ZM11.242 105H13.582V114H11.242V105ZM10.9 102.462C10.9 102.114 11.026 101.82 11.278 101.58C11.542 101.328 11.902 101.202 12.358 101.202C12.814 101.202 13.18 101.328 13.456 101.58C13.744 101.82 13.888 102.114 13.888 102.462C13.888 102.81 13.744 103.104 13.456 103.344C13.18 103.572 12.814 103.686 12.358 103.686C11.902 103.686 11.542 103.572 11.278 103.344C11.026 103.104 10.9 102.81 10.9 102.462ZM21.368 114V108.888C21.368 108.156 21.26 107.628 21.044 107.304C20.84 106.98 20.486 106.818 19.982 106.818C19.538 106.818 19.16 106.95 18.848 107.214C18.548 107.466 18.332 107.784 18.2 108.168V114H15.86V105H17.714L17.984 106.188H18.056C18.332 105.804 18.698 105.468 19.154 105.18C19.61 104.892 20.198 104.748 20.918 104.748C21.362 104.748 21.758 104.808 22.106 104.928C22.454 105.048 22.748 105.246 22.988 105.522C23.228 105.798 23.408 106.176 23.528 106.656C23.648 107.124 23.708 107.706 23.708 108.402V114H21.368ZM24.8406 105H26.0826V104.496C26.0826 103.356 26.3226 102.534 26.8026 102.03C27.2826 101.514 27.9786 101.256 28.8906 101.256C29.8506 101.256 30.6486 101.37 31.2846 101.598L30.8346 103.47C30.5586 103.374 30.3126 103.314 30.0966 103.29C29.8926 103.254 29.6766 103.236 29.4486 103.236C29.2086 103.236 29.0166 103.272 28.8726 103.344C28.7406 103.416 28.6386 103.53 28.5666 103.686C28.5066 103.83 28.4646 104.016 28.4406 104.244C28.4286 104.46 28.4226 104.712 28.4226 105H30.4026V106.98H28.4226V114H26.0826V106.98H24.8406V105ZM30.9319 109.5C30.9319 107.976 31.3039 106.806 32.0479 105.99C32.7919 105.162 33.8359 104.748 35.1799 104.748C35.8999 104.748 36.5239 104.862 37.0519 105.09C37.5799 105.318 38.0179 105.642 38.3659 106.062C38.7139 106.47 38.9719 106.968 39.1399 107.556C39.3199 108.144 39.4099 108.792 39.4099 109.5C39.4099 111.024 39.0379 112.2 38.2939 113.028C37.5619 113.844 36.5239 114.252 35.1799 114.252C34.4599 114.252 33.8359 114.138 33.3079 113.91C32.7799 113.682 32.3359 113.364 31.9759 112.956C31.6279 112.536 31.3639 112.032 31.1839 111.444C31.0159 110.856 30.9319 110.208 30.9319 109.5ZM33.3439 109.5C33.3439 109.896 33.3799 110.262 33.4519 110.598C33.5239 110.934 33.6319 111.228 33.7759 111.48C33.9199 111.732 34.1059 111.93 34.3339 112.074C34.5739 112.206 34.8559 112.272 35.1799 112.272C35.7919 112.272 36.2479 112.05 36.5479 111.606C36.8479 111.162 36.9979 110.46 36.9979 109.5C36.9979 108.672 36.8599 108.006 36.5839 107.502C36.3079 106.986 35.8399 106.728 35.1799 106.728C34.6039 106.728 34.1539 106.944 33.8299 107.376C33.5059 107.808 33.3439 108.516 33.3439 109.5ZM45.9999 107.196C45.6279 107.064 45.2919 106.998 44.9919 106.998C44.5719 106.998 44.2179 107.112 43.9299 107.34C43.6539 107.556 43.4679 107.838 43.3719 108.186V114H41.0319V105H42.8499L43.1199 106.188H43.1919C43.3959 105.744 43.6719 105.402 44.0199 105.162C44.3679 104.922 44.7759 104.802 45.2439 104.802C45.5559 104.802 45.9099 104.868 46.3059 105L45.9999 107.196ZM52.4544 114V109.104C52.4544 108.276 52.3764 107.688 52.2204 107.34C52.0644 106.992 51.7404 106.818 51.2484 106.818C50.8404 106.818 50.5104 106.932 50.2584 107.16C50.0064 107.376 49.8144 107.658 49.6824 108.006V114H47.3424V105H49.1604L49.4304 106.188H49.5024C49.7784 105.804 50.1264 105.468 50.5464 105.18C50.9784 104.892 51.5304 104.748 52.2024 104.748C52.7784 104.748 53.2464 104.868 53.6064 105.108C53.9784 105.336 54.2664 105.726 54.4704 106.278C54.7464 105.81 55.1004 105.438 55.5324 105.162C55.9644 104.886 56.4864 104.748 57.0984 104.748C57.6024 104.748 58.0284 104.808 58.3764 104.928C58.7364 105.048 59.0244 105.258 59.2404 105.558C59.4684 105.846 59.6364 106.236 59.7444 106.728C59.8524 107.22 59.9064 107.844 59.9064 108.6V114H57.5664V108.942C57.5664 108.234 57.4884 107.706 57.3324 107.358C57.1884 106.998 56.8584 106.818 56.3424 106.818C55.9224 106.818 55.5864 106.932 55.3344 107.16C55.0944 107.388 54.9144 107.7 54.7944 108.096V114H52.4544ZM61.7728 105.522C62.2528 105.306 62.8228 105.138 63.4828 105.018C64.1428 104.886 64.8328 104.82 65.5528 104.82C66.1768 104.82 66.6988 104.898 67.1188 105.054C67.5388 105.198 67.8688 105.408 68.1088 105.684C68.3608 105.96 68.5348 106.29 68.6308 106.674C68.7388 107.058 68.7928 107.49 68.7928 107.97C68.7928 108.498 68.7748 109.032 68.7388 109.572C68.7028 110.1 68.6788 110.622 68.6668 111.138C68.6668 111.654 68.6848 112.158 68.7208 112.65C68.7568 113.13 68.8468 113.586 68.9908 114.018H67.0828L66.7048 112.776H66.6148C66.3748 113.148 66.0388 113.472 65.6068 113.748C65.1868 114.012 64.6408 114.144 63.9688 114.144C63.5488 114.144 63.1708 114.084 62.8348 113.964C62.4988 113.832 62.2108 113.652 61.9708 113.424C61.7308 113.184 61.5448 112.908 61.4128 112.596C61.2808 112.272 61.2148 111.912 61.2148 111.516C61.2148 110.964 61.3348 110.502 61.5748 110.13C61.8268 109.746 62.1808 109.44 62.6368 109.212C63.1048 108.972 63.6568 108.81 64.2928 108.726C64.9408 108.63 65.6608 108.6 66.4528 108.636C66.5368 107.964 66.4888 107.484 66.3088 107.196C66.1288 106.896 65.7268 106.746 65.1028 106.746C64.6348 106.746 64.1368 106.794 63.6088 106.89C63.0928 106.986 62.6668 107.112 62.3308 107.268L61.7728 105.522ZM64.7428 112.218C65.2108 112.218 65.5828 112.116 65.8588 111.912C66.1348 111.696 66.3388 111.468 66.4708 111.228V110.058C66.0988 110.022 65.7388 110.016 65.3908 110.04C65.0548 110.064 64.7548 110.118 64.4908 110.202C64.2268 110.286 64.0168 110.406 63.8608 110.562C63.7048 110.718 63.6268 110.916 63.6268 111.156C63.6268 111.492 63.7228 111.756 63.9148 111.948C64.1188 112.128 64.3948 112.218 64.7428 112.218ZM77.1285 113.442C76.8525 113.646 76.5345 113.808 76.1745 113.928C75.8265 114.048 75.4545 114.138 75.0585 114.198L74.7345 114.774C75.2265 114.822 75.6105 114.948 75.8865 115.152C76.1745 115.368 76.3185 115.692 76.3185 116.124C76.3185 116.4 76.2465 116.64 76.1025 116.844C75.9705 117.048 75.7845 117.216 75.5445 117.348C75.3045 117.492 75.0225 117.6 74.6985 117.672C74.3745 117.744 74.0265 117.78 73.6545 117.78C73.2825 117.78 72.8985 117.744 72.5025 117.672L72.6645 116.808C72.7485 116.82 72.8265 116.826 72.8985 116.826C72.9705 116.826 73.0365 116.826 73.0965 116.826C73.5525 116.826 73.8465 116.772 73.9785 116.664C74.1105 116.556 74.1765 116.43 74.1765 116.286C74.1765 115.95 73.6605 115.758 72.6285 115.71L73.5285 114.198C72.9405 114.126 72.4425 113.964 72.0345 113.712C71.6265 113.448 71.2965 113.118 71.0445 112.722C70.7925 112.314 70.6065 111.84 70.4865 111.3C70.3785 110.748 70.3245 110.148 70.3245 109.5C70.3245 107.976 70.6665 106.806 71.3505 105.99C72.0345 105.162 73.0305 104.748 74.3385 104.748C74.9985 104.748 75.5265 104.802 75.9225 104.91C76.3305 105.018 76.6965 105.156 77.0205 105.324L76.4625 107.232C76.1865 107.1 75.9105 106.998 75.6345 106.926C75.3705 106.854 75.0645 106.818 74.7165 106.818C74.0685 106.818 73.5765 107.034 73.2405 107.466C72.9045 107.886 72.7365 108.564 72.7365 109.5C72.7365 109.884 72.7785 110.238 72.8625 110.562C72.9465 110.886 73.0725 111.168 73.2405 111.408C73.4085 111.648 73.6245 111.84 73.8885 111.984C74.1645 112.116 74.4825 112.182 74.8425 112.182C75.2385 112.182 75.5745 112.134 75.8505 112.038C76.1265 111.93 76.3725 111.804 76.5885 111.66L77.1285 113.442ZM77.8127 109.5C77.8127 107.976 78.1848 106.806 78.9288 105.99C79.6728 105.162 80.7168 104.748 82.0608 104.748C82.7808 104.748 83.4048 104.862 83.9328 105.09C84.4608 105.318 84.8988 105.642 85.2468 106.062C85.5948 106.47 85.8528 106.968 86.0208 107.556C86.2008 108.144 86.2908 108.792 86.2908 109.5C86.2908 111.024 85.9188 112.2 85.1748 113.028C84.4428 113.844 83.4048 114.252 82.0608 114.252C81.3408 114.252 80.7168 114.138 80.1888 113.91C79.6608 113.682 79.2168 113.364 78.8568 112.956C78.5088 112.536 78.2448 112.032 78.0648 111.444C77.8968 110.856 77.8127 110.208 77.8127 109.5ZM80.2248 109.5C80.2248 109.896 80.2608 110.262 80.3328 110.598C80.4048 110.934 80.5128 111.228 80.6568 111.48C80.8008 111.732 80.9868 111.93 81.2148 112.074C81.4548 112.206 81.7368 112.272 82.0608 112.272C82.6728 112.272 83.1288 112.05 83.4288 111.606C83.7288 111.162 83.8788 110.46 83.8788 109.5C83.8788 108.672 83.7408 108.006 83.4648 107.502C83.1888 106.986 82.7208 106.728 82.0608 106.728C81.4848 106.728 81.0348 106.944 80.7108 107.376C80.3868 107.808 80.2248 108.516 80.2248 109.5ZM79.0908 102.156C79.4628 101.712 79.8048 101.406 80.1168 101.238C80.4408 101.07 80.7468 100.986 81.0348 100.986C81.2748 100.986 81.5028 101.028 81.7188 101.112C81.9468 101.196 82.1688 101.286 82.3848 101.382C82.6008 101.478 82.8108 101.568 83.0148 101.652C83.2188 101.736 83.4288 101.778 83.6448 101.778C83.8128 101.778 83.9808 101.742 84.1488 101.67C84.3288 101.598 84.5148 101.472 84.7068 101.292L85.0668 102.552C84.7188 102.936 84.3948 103.2 84.0948 103.344C83.8068 103.488 83.5248 103.56 83.2488 103.56C83.0088 103.56 82.7748 103.524 82.5468 103.452C82.3188 103.368 82.0968 103.278 81.8808 103.182C81.6648 103.086 81.4488 103.002 81.2328 102.93C81.0168 102.846 80.8008 102.804 80.5848 102.804C80.4048 102.804 80.2188 102.846 80.0268 102.93C79.8348 103.002 79.6368 103.134 79.4328 103.326L79.0908 102.156ZM95.1127 113.226C94.7527 113.514 94.2607 113.76 93.6367 113.964C93.0247 114.156 92.3707 114.252 91.6747 114.252C90.2227 114.252 89.1607 113.832 88.4887 112.992C87.8167 112.14 87.4807 110.976 87.4807 109.5C87.4807 107.916 87.8587 106.728 88.6147 105.936C89.3707 105.144 90.4327 104.748 91.8007 104.748C92.2567 104.748 92.7007 104.808 93.1327 104.928C93.5647 105.048 93.9487 105.246 94.2847 105.522C94.6207 105.798 94.8907 106.17 95.0947 106.638C95.2987 107.106 95.4007 107.688 95.4007 108.384C95.4007 108.636 95.3827 108.906 95.3467 109.194C95.3227 109.482 95.2807 109.782 95.2207 110.094H89.8207C89.8567 110.85 90.0487 111.42 90.3967 111.804C90.7567 112.188 91.3327 112.38 92.1247 112.38C92.6167 112.38 93.0547 112.308 93.4387 112.164C93.8347 112.008 94.1347 111.852 94.3387 111.696L95.1127 113.226ZM91.7647 106.62C91.1527 106.62 90.6967 106.806 90.3967 107.178C90.1087 107.538 89.9347 108.024 89.8747 108.636H93.2227C93.2707 107.988 93.1687 107.49 92.9167 107.142C92.6767 106.794 92.2927 106.62 91.7647 106.62ZM100.779 111.516C100.779 111.276 100.677 111.084 100.473 110.94C100.269 110.796 100.017 110.664 99.7173 110.544C99.4173 110.424 99.0873 110.304 98.7273 110.184C98.3673 110.052 98.0373 109.878 97.7373 109.662C97.4373 109.434 97.1853 109.152 96.9813 108.816C96.7773 108.468 96.6753 108.024 96.6753 107.484C96.6753 106.596 96.9393 105.918 97.4673 105.45C97.9953 104.982 98.7573 104.748 99.7533 104.748C100.437 104.748 101.055 104.82 101.607 104.964C102.159 105.108 102.591 105.27 102.903 105.45L102.381 107.142C102.105 107.034 101.757 106.92 101.337 106.8C100.917 106.68 100.491 106.62 100.059 106.62C99.3633 106.62 99.0153 106.89 99.0153 107.43C99.0153 107.646 99.1173 107.82 99.3213 107.952C99.5253 108.084 99.7773 108.21 100.077 108.33C100.377 108.438 100.707 108.558 101.067 108.69C101.427 108.822 101.757 108.996 102.057 109.212C102.357 109.416 102.609 109.686 102.813 110.022C103.017 110.358 103.119 110.79 103.119 111.318C103.119 112.23 102.825 112.95 102.237 113.478C101.661 113.994 100.791 114.252 99.6273 114.252C98.9913 114.252 98.3913 114.168 97.8273 114C97.2753 113.844 96.8253 113.658 96.4773 113.442L97.1253 111.696C97.4013 111.852 97.7673 112.008 98.2233 112.164C98.6793 112.308 99.1473 112.38 99.6273 112.38C99.9753 112.38 100.251 112.314 100.455 112.182C100.671 112.05 100.779 111.828 100.779 111.516Z" fill="black"/>
</svg>
