<svg width="90" height="22" viewBox="0 0 90 22" fill="none" xmlns="http://www.w3.org/2000/svg">
<path d="M19.3464 0H1.65356C0.740322 0 0 0.770337 0 1.7206V19.9769C0 20.9272 0.740322 21.6975 1.65356 21.6975H19.3464C20.2597 21.6975 21 20.9272 21 19.9769V1.7206C21 0.770337 20.2597 0 19.3464 0Z" fill="#3B77EC"/>
<path d="M14.5602 4.78873L16 4.13281V15.2898L6 18.5978L14.5602 15.1334V4.78873Z" fill="white" fill-opacity="0.2"/>
<path d="M6 7.36059L14 4.13281V14.3368L6 17.5646V7.36059Z" fill="white"/>
<path d="M30.6109 9.60565C30.3082 9.27023 29.9911 9.00338 29.6595 8.80521C29.328 8.60697 28.9893 8.50786 28.6433 8.50786C28.1676 8.50786 27.7424 8.59934 27.3676 8.78229C26.9928 8.96531 26.6685 9.20925 26.3946 9.51418C26.1351 9.8191 25.9334 10.1698 25.7892 10.5662C25.6595 10.9627 25.5946 11.3743 25.5946 11.8012C25.5946 12.2281 25.6595 12.6398 25.7892 13.0362C25.9334 13.4327 26.1351 13.7834 26.3946 14.0883C26.6685 14.3932 26.9928 14.6372 27.3676 14.8201C27.7424 15.0031 28.1676 15.0946 28.6433 15.0946C29.0469 15.0946 29.4217 15.0107 29.7676 14.843C30.1136 14.66 30.4091 14.4009 30.6541 14.0654L32.3839 16.0323C32.1244 16.3068 31.8217 16.5431 31.4758 16.7413C31.1443 16.9395 30.8055 17.0996 30.4595 17.2216C30.1136 17.3436 29.7821 17.4274 29.4649 17.4732C29.1478 17.5342 28.8739 17.5646 28.6433 17.5646C27.8649 17.5646 27.1298 17.4274 26.4379 17.153C25.7459 16.8785 25.1478 16.4897 24.6432 15.9866C24.1387 15.4834 23.7351 14.8811 23.4324 14.1798C23.1441 13.4632 23 12.6703 23 11.8012C23 10.9322 23.1441 10.1469 23.4324 9.44555C23.7351 8.72894 24.1387 8.11909 24.6432 7.61593C25.1478 7.11277 25.7459 6.72395 26.4379 6.44951C27.1298 6.17508 27.8649 6.03783 28.6433 6.03783C29.3064 6.03783 29.9695 6.17508 30.6325 6.44951C31.31 6.70873 31.901 7.12799 32.4055 7.70741L30.6109 9.60565ZM33.133 11.8012C33.133 10.9322 33.2771 10.1469 33.5654 9.44555C33.8681 8.72894 34.2717 8.11909 34.7762 7.61593C35.2807 7.11277 35.879 6.72395 36.5709 6.44951C37.2628 6.17508 37.9979 6.03783 38.7763 6.03783C39.5547 6.03783 40.2898 6.17508 40.9818 6.44951C41.6737 6.72395 42.2718 7.11277 42.7764 7.61593C43.2809 8.11909 43.6773 8.72894 43.9656 9.44555C44.2683 10.1469 44.4196 10.9322 44.4196 11.8012C44.4196 12.6703 44.2683 13.4632 43.9656 14.1798C43.6773 14.8811 43.2809 15.4834 42.7764 15.9866C42.2718 16.4897 41.6737 16.8785 40.9818 17.153C40.2898 17.4274 39.5547 17.5646 38.7763 17.5646C37.9979 17.5646 37.2628 17.4274 36.5709 17.153C35.879 16.8785 35.2807 16.4897 34.7762 15.9866C34.2717 15.4834 33.8681 14.8811 33.5654 14.1798C33.2771 13.4632 33.133 12.6703 33.133 11.8012ZM35.7276 11.8012C35.7276 12.2281 35.7925 12.6398 35.9222 13.0362C36.0664 13.4327 36.2682 13.7834 36.5276 14.0883C36.8015 14.3932 37.1258 14.6372 37.5006 14.8201C37.8754 15.0031 38.3006 15.0946 38.7763 15.0946C39.252 15.0946 39.6772 15.0031 40.052 14.8201C40.4268 14.6372 40.7439 14.3932 41.0034 14.0883C41.2773 13.7834 41.4791 13.4327 41.6088 13.0362C41.753 12.6398 41.825 12.2281 41.825 11.8012C41.825 11.3743 41.753 10.9627 41.6088 10.5662C41.4791 10.1698 41.2773 9.8191 41.0034 9.51418C40.7439 9.20925 40.4268 8.96531 40.052 8.78229C39.6772 8.59934 39.252 8.50786 38.7763 8.50786C38.3006 8.50786 37.8754 8.59934 37.5006 8.78229C37.1258 8.96531 36.8015 9.20925 36.5276 9.51418C36.2682 9.8191 36.0664 10.1698 35.9222 10.5662C35.7925 10.9627 35.7276 11.3743 35.7276 11.8012ZM45.3592 6.31227H47.8241V8.07332H47.8673C48.1124 7.52445 48.4872 7.05179 48.9917 6.65533C49.4962 6.2437 50.1809 6.03783 51.0458 6.03783C51.7377 6.03783 52.3215 6.15981 52.7972 6.40375C53.2873 6.64775 53.6837 6.96789 53.9864 7.36435C54.2891 7.76076 54.5053 8.21815 54.635 8.73658C54.7648 9.25496 54.8296 9.79625 54.8296 10.3604V17.2902H52.235V11.7326C52.235 11.4277 52.2205 11.0923 52.1917 10.7263C52.1629 10.3451 52.0836 9.99448 51.9539 9.67428C51.8386 9.33886 51.6512 9.06436 51.3917 8.85092C51.1323 8.62219 50.7791 8.50786 50.3322 8.50786C49.8998 8.50786 49.5322 8.58412 49.2295 8.73658C48.9412 8.88905 48.6962 9.09486 48.4944 9.35407C48.307 9.61329 48.17 9.91058 48.0836 10.2461C47.9971 10.5815 47.9538 10.9322 47.9538 11.2981V17.2902H45.3592V6.31227ZM63.5261 9.60565C63.2235 9.27023 62.9065 9.00338 62.575 8.80521C62.2435 8.60697 61.9049 8.50786 61.5584 8.50786C61.0831 8.50786 60.6579 8.59934 60.2831 8.78229C59.9083 8.96531 59.5841 9.20925 59.3098 9.51418C59.0505 9.8191 58.8484 10.1698 58.7046 10.5662C58.5747 10.9627 58.5098 11.3743 58.5098 11.8012C58.5098 12.2281 58.5747 12.6398 58.7046 13.0362C58.8484 13.4327 59.0505 13.7834 59.3098 14.0883C59.5841 14.3932 59.9083 14.6372 60.2831 14.8201C60.6579 15.0031 61.0831 15.0946 61.5584 15.0946C61.962 15.0946 62.3368 15.0107 62.6833 14.843C63.0291 14.66 63.3245 14.4009 63.5694 14.0654L65.2994 16.0323C65.0396 16.3068 64.737 16.5431 64.3911 16.7413C64.0596 16.9395 63.7209 17.0996 63.375 17.2216C63.0291 17.3436 62.6977 17.4274 62.3801 17.4732C62.0631 17.5342 61.7894 17.5646 61.5584 17.5646C60.78 17.5646 60.0449 17.4274 59.3531 17.153C58.6613 16.8785 58.0634 16.4897 57.5587 15.9866C57.054 15.4834 56.6504 14.8811 56.3478 14.1798C56.0596 13.4632 55.9153 12.6703 55.9153 11.8012C55.9153 10.9322 56.0596 10.1469 56.3478 9.44555C56.6504 8.72894 57.054 8.11909 57.5587 7.61593C58.0634 7.11277 58.6613 6.72395 59.3531 6.44951C60.0449 6.17508 60.78 6.03783 61.5584 6.03783C62.2219 6.03783 62.8848 6.17508 63.5477 6.44951C64.2256 6.70873 64.8164 7.12799 65.321 7.70741L63.5261 9.60565ZM66.7385 6.31227H69.3335V17.2902H66.7385V6.31227ZM66.3709 2.58438C66.3709 2.14222 66.5225 1.76104 66.8251 1.44085C67.1421 1.10541 67.5385 0.937699 68.0144 0.937699C68.4902 0.937699 68.8866 1.09779 69.2036 1.41798C69.5351 1.72292 69.7011 2.11172 69.7011 2.58438C69.7011 3.05704 69.5351 3.45346 69.2036 3.77365C68.8866 4.0786 68.4902 4.23106 68.0144 4.23106C67.5385 4.23106 67.1421 4.07097 66.8251 3.75078C66.5225 3.41535 66.3709 3.02655 66.3709 2.58438ZM70.6693 0H73.2638V17.2902H70.6693V0ZM74.8356 6.31227H77.4301V17.2902H74.8356V6.31227ZM74.4675 2.58438C74.4675 2.14222 74.6191 1.76104 74.9217 1.44085C75.2387 1.10541 75.6351 0.937699 76.1109 0.937699C76.5868 0.937699 76.9832 1.09779 77.3002 1.41798C77.6322 1.72292 77.7977 2.11172 77.7977 2.58438C77.7977 3.05704 77.6322 3.45346 77.3002 3.77365C76.9832 4.0786 76.5868 4.23106 76.1109 4.23106C75.6351 4.23106 75.2387 4.07097 74.9217 3.75078C74.6191 3.41535 74.4675 3.02655 74.4675 2.58438ZM78.7132 11.8012C78.7132 10.9322 78.8575 10.1469 79.1457 9.44555C79.4483 8.72894 79.8519 8.11909 80.3566 7.61593C80.8613 7.11277 81.4592 6.72395 82.151 6.44951C82.8434 6.17508 83.5785 6.03783 84.3569 6.03783C85.1353 6.03783 85.8704 6.17508 86.5622 6.44951C87.2539 6.72395 87.8525 7.11277 88.3566 7.61593C88.8613 8.11909 89.2577 8.72894 89.5458 9.44555C89.8484 10.1469 90 10.9322 90 11.8012C90 12.6703 89.8484 13.4632 89.5458 14.1798C89.2577 14.8811 88.8613 15.4834 88.3566 15.9866C87.8525 16.4897 87.2539 16.8785 86.5622 17.153C85.8704 17.4274 85.1353 17.5646 84.3569 17.5646C83.5785 17.5646 82.8434 17.4274 82.151 17.153C81.4592 16.8785 80.8613 16.4897 80.3566 15.9866C79.8519 15.4834 79.4483 14.8811 79.1457 14.1798C78.8575 13.4632 78.7132 12.6703 78.7132 11.8012ZM81.3082 11.8012C81.3082 12.2281 81.3726 12.6398 81.5026 13.0362C81.6469 13.4327 81.8484 13.7834 82.1077 14.0883C82.382 14.3932 82.7062 14.6372 83.081 14.8201C83.4558 15.0031 83.8811 15.0946 84.3569 15.0946C84.8321 15.0946 85.2574 15.0031 85.6322 14.8201C86.0069 14.6372 86.3245 14.3932 86.5838 14.0883C86.8575 13.7834 87.0596 13.4327 87.189 13.0362C87.3333 12.6398 87.4055 12.2281 87.4055 11.8012C87.4055 11.3743 87.3333 10.9627 87.189 10.5662C87.0596 10.1698 86.8575 9.8191 86.5838 9.51418C86.3245 9.20925 86.0069 8.96531 85.6322 8.78229C85.2574 8.59934 84.8321 8.50786 84.3569 8.50786C83.8811 8.50786 83.4558 8.59934 83.081 8.78229C82.7062 8.96531 82.382 9.20925 82.1077 9.51418C81.8484 9.8191 81.6469 10.1698 81.5026 10.5662C81.3726 10.9627 81.3082 11.3743 81.3082 11.8012Z" fill="#474747"/>
</svg>
