<svg width="130" height="130" viewBox="0 0 130 130" fill="none" xmlns="http://www.w3.org/2000/svg">
<path d="M1 8C1 4.13401 4.13401 1 8 1H122C125.866 1 129 4.13401 129 8V122C129 125.866 125.866 129 122 129H8C4.13401 129 1 125.866 1 122V8Z" fill="white" stroke="#0050F2" stroke-width="2"/>
<path d="M16.795 83.605H12.955V88H10.9V77.5H12.955V81.775H16.795V77.5H18.85V88H16.795V83.605ZM20.2655 84.25C20.2655 82.98 20.5755 82.005 21.1955 81.325C21.8155 80.635 22.6855 80.29 23.8055 80.29C24.4055 80.29 24.9255 80.385 25.3655 80.575C25.8055 80.765 26.1705 81.035 26.4605 81.385C26.7505 81.725 26.9655 82.14 27.1055 82.63C27.2555 83.12 27.3305 83.66 27.3305 84.25C27.3305 85.52 27.0205 86.5 26.4005 87.19C25.7905 87.87 24.9255 88.21 23.8055 88.21C23.2055 88.21 22.6855 88.115 22.2455 87.925C21.8055 87.735 21.4355 87.47 21.1355 87.13C20.8455 86.78 20.6255 86.36 20.4755 85.87C20.3355 85.38 20.2655 84.84 20.2655 84.25ZM22.2755 84.25C22.2755 84.58 22.3055 84.885 22.3655 85.165C22.4255 85.445 22.5155 85.69 22.6355 85.9C22.7555 86.11 22.9105 86.275 23.1005 86.395C23.3005 86.505 23.5355 86.56 23.8055 86.56C24.3155 86.56 24.6955 86.375 24.9455 86.005C25.1955 85.635 25.3205 85.05 25.3205 84.25C25.3205 83.56 25.2055 83.005 24.9755 82.585C24.7455 82.155 24.3555 81.94 23.8055 81.94C23.3255 81.94 22.9505 82.12 22.6805 82.48C22.4105 82.84 22.2755 83.43 22.2755 84.25ZM32.8221 82.33C32.5121 82.22 32.2321 82.165 31.9821 82.165C31.6321 82.165 31.3371 82.26 31.0971 82.45C30.8671 82.63 30.7121 82.865 30.6321 83.155V88H28.6821V80.5H30.1971L30.4221 81.49H30.4821C30.6521 81.12 30.8821 80.835 31.1721 80.635C31.4621 80.435 31.8021 80.335 32.1921 80.335C32.4521 80.335 32.7471 80.39 33.0771 80.5L32.8221 82.33ZM33.8959 80.935C34.2959 80.755 34.7709 80.615 35.3209 80.515C35.8709 80.405 36.4459 80.35 37.0459 80.35C37.5659 80.35 38.0009 80.415 38.3509 80.545C38.7009 80.665 38.9759 80.84 39.1759 81.07C39.3859 81.3 39.5309 81.575 39.6109 81.895C39.7009 82.215 39.7459 82.575 39.7459 82.975C39.7459 83.415 39.7309 83.86 39.7009 84.31C39.6709 84.75 39.6509 85.185 39.6409 85.615C39.6409 86.045 39.6559 86.465 39.6859 86.875C39.7159 87.275 39.7909 87.655 39.9109 88.015H38.3209L38.0059 86.98H37.9309C37.7309 87.29 37.4509 87.56 37.0909 87.79C36.7409 88.01 36.2859 88.12 35.7259 88.12C35.3759 88.12 35.0609 88.07 34.7809 87.97C34.5009 87.86 34.2609 87.71 34.0609 87.52C33.8609 87.32 33.7059 87.09 33.5959 86.83C33.4859 86.56 33.4309 86.26 33.4309 85.93C33.4309 85.47 33.5309 85.085 33.7309 84.775C33.9409 84.455 34.2359 84.2 34.6159 84.01C35.0059 83.81 35.4659 83.675 35.9959 83.605C36.5359 83.525 37.1359 83.5 37.7959 83.53C37.8659 82.97 37.8259 82.57 37.6759 82.33C37.5259 82.08 37.1909 81.955 36.6709 81.955C36.2809 81.955 35.8659 81.995 35.4259 82.075C34.9959 82.155 34.6409 82.26 34.3609 82.39L33.8959 80.935ZM36.3709 86.515C36.7609 86.515 37.0709 86.43 37.3009 86.26C37.5309 86.08 37.7009 85.89 37.8109 85.69V84.715C37.5009 84.685 37.2009 84.68 36.9109 84.7C36.6309 84.72 36.3809 84.765 36.1609 84.835C35.9409 84.905 35.7659 85.005 35.6359 85.135C35.5059 85.265 35.4409 85.43 35.4409 85.63C35.4409 85.91 35.5209 86.13 35.6809 86.29C35.8509 86.44 36.0809 86.515 36.3709 86.515ZM44.4873 85.93C44.4873 85.73 44.4023 85.57 44.2323 85.45C44.0623 85.33 43.8523 85.22 43.6023 85.12C43.3523 85.02 43.0773 84.92 42.7773 84.82C42.4773 84.71 42.2023 84.565 41.9523 84.385C41.7023 84.195 41.4923 83.96 41.3223 83.68C41.1523 83.39 41.0673 83.02 41.0673 82.57C41.0673 81.83 41.2873 81.265 41.7273 80.875C42.1673 80.485 42.8023 80.29 43.6323 80.29C44.2023 80.29 44.7173 80.35 45.1773 80.47C45.6373 80.59 45.9973 80.725 46.2573 80.875L45.8223 82.285C45.5923 82.195 45.3023 82.1 44.9523 82C44.6023 81.9 44.2473 81.85 43.8873 81.85C43.3073 81.85 43.0173 82.075 43.0173 82.525C43.0173 82.705 43.1023 82.85 43.2723 82.96C43.4423 83.07 43.6523 83.175 43.9023 83.275C44.1523 83.365 44.4273 83.465 44.7273 83.575C45.0273 83.685 45.3023 83.83 45.5523 84.01C45.8023 84.18 46.0123 84.405 46.1823 84.685C46.3523 84.965 46.4373 85.325 46.4373 85.765C46.4373 86.525 46.1923 87.125 45.7023 87.565C45.2223 87.995 44.4973 88.21 43.5273 88.21C42.9973 88.21 42.4973 88.14 42.0273 88C41.5673 87.87 41.1923 87.715 40.9023 87.535L41.4423 86.08C41.6723 86.21 41.9773 86.34 42.3573 86.47C42.7373 86.59 43.1273 86.65 43.5273 86.65C43.8173 86.65 44.0473 86.595 44.2173 86.485C44.3973 86.375 44.4873 86.19 44.4873 85.93ZM18.01 106.565C17.69 106.795 17.28 106.96 16.78 107.06C16.29 107.16 15.785 107.21 15.265 107.21C14.635 107.21 14.035 107.115 13.465 106.925C12.905 106.725 12.41 106.41 11.98 105.98C11.55 105.54 11.205 104.975 10.945 104.285C10.695 103.585 10.57 102.74 10.57 101.75C10.57 100.72 10.71 99.86 10.99 99.17C11.28 98.47 11.65 97.91 12.1 97.49C12.56 97.06 13.07 96.755 13.63 96.575C14.19 96.385 14.75 96.29 15.31 96.29C15.91 96.29 16.415 96.33 16.825 96.41C17.245 96.49 17.59 96.585 17.86 96.695L17.455 98.435C17.225 98.325 16.95 98.245 16.63 98.195C16.32 98.145 15.94 98.12 15.49 98.12C14.66 98.12 13.99 98.415 13.48 99.005C12.98 99.595 12.73 100.51 12.73 101.75C12.73 102.29 12.79 102.785 12.91 103.235C13.03 103.675 13.21 104.055 13.45 104.375C13.7 104.685 14.005 104.93 14.365 105.11C14.735 105.28 15.16 105.365 15.64 105.365C16.09 105.365 16.47 105.32 16.78 105.23C17.09 105.14 17.36 105.025 17.59 104.885L18.01 106.565ZM18.3319 103.25C18.3319 101.98 18.6419 101.005 19.2619 100.325C19.8819 99.635 20.7519 99.29 21.8719 99.29C22.4719 99.29 22.9919 99.385 23.4319 99.575C23.8719 99.765 24.2369 100.035 24.5269 100.385C24.8169 100.725 25.0319 101.14 25.1719 101.63C25.3219 102.12 25.3969 102.66 25.3969 103.25C25.3969 104.52 25.0869 105.5 24.4669 106.19C23.8569 106.87 22.9919 107.21 21.8719 107.21C21.2719 107.21 20.7519 107.115 20.3119 106.925C19.8719 106.735 19.5019 106.47 19.2019 106.13C18.9119 105.78 18.6919 105.36 18.5419 104.87C18.4019 104.38 18.3319 103.84 18.3319 103.25ZM20.3419 103.25C20.3419 103.58 20.3719 103.885 20.4319 104.165C20.4919 104.445 20.5819 104.69 20.7019 104.9C20.8219 105.11 20.9769 105.275 21.1669 105.395C21.3669 105.505 21.6019 105.56 21.8719 105.56C22.3819 105.56 22.7619 105.375 23.0119 105.005C23.2619 104.635 23.3869 104.05 23.3869 103.25C23.3869 102.56 23.2719 102.005 23.0419 101.585C22.8119 101.155 22.4219 100.94 21.8719 100.94C21.3919 100.94 21.0169 101.12 20.7469 101.48C20.4769 101.84 20.3419 102.43 20.3419 103.25ZM31.0086 107V102.92C31.0086 102.23 30.9436 101.74 30.8136 101.45C30.6836 101.16 30.4136 101.015 30.0036 101.015C29.6636 101.015 29.3886 101.11 29.1786 101.3C28.9686 101.48 28.8086 101.715 28.6986 102.005V107H26.7486V99.5H28.2636L28.4886 100.49H28.5486C28.7786 100.17 29.0686 99.89 29.4186 99.65C29.7786 99.41 30.2386 99.29 30.7986 99.29C31.2786 99.29 31.6686 99.39 31.9686 99.59C32.2786 99.78 32.5186 100.105 32.6886 100.565C32.9186 100.175 33.2136 99.865 33.5736 99.635C33.9336 99.405 34.3686 99.29 34.8786 99.29C35.2986 99.29 35.6536 99.34 35.9436 99.44C36.2436 99.54 36.4836 99.715 36.6636 99.965C36.8536 100.205 36.9936 100.53 37.0836 100.94C37.1736 101.35 37.2186 101.87 37.2186 102.5V107H35.2686V102.785C35.2686 102.195 35.2036 101.755 35.0736 101.465C34.9536 101.165 34.6786 101.015 34.2486 101.015C33.8986 101.015 33.6186 101.11 33.4086 101.3C33.2086 101.49 33.0586 101.75 32.9586 102.08V107H31.0086ZM38.8189 99.5H40.2439L40.4689 100.4H40.5289C40.7889 100.02 41.0939 99.74 41.4439 99.56C41.8039 99.38 42.2389 99.29 42.7489 99.29C43.6889 99.29 44.3939 99.59 44.8639 100.19C45.3339 100.78 45.5689 101.735 45.5689 103.055C45.5689 103.695 45.4939 104.275 45.3439 104.795C45.1939 105.305 44.9689 105.74 44.6689 106.1C44.3789 106.46 44.0189 106.735 43.5889 106.925C43.1689 107.115 42.6839 107.21 42.1339 107.21C41.8239 107.21 41.5689 107.185 41.3689 107.135C41.1689 107.095 40.9689 107.025 40.7689 106.925V110H38.8189V99.5ZM42.1639 100.94C41.7839 100.94 41.4839 101.035 41.2639 101.225C41.0539 101.415 40.8889 101.7 40.7689 102.08V105.2C40.9089 105.31 41.0589 105.4 41.2189 105.47C41.3889 105.53 41.6089 105.56 41.8789 105.56C42.4389 105.56 42.8589 105.365 43.1389 104.975C43.4189 104.575 43.5589 103.92 43.5589 103.01C43.5589 102.35 43.4489 101.84 43.2289 101.48C43.0089 101.12 42.6539 100.94 42.1639 100.94ZM48.9295 104.48C48.9295 104.83 48.9745 105.085 49.0645 105.245C49.1545 105.405 49.2995 105.485 49.4995 105.485C49.6195 105.485 49.7345 105.475 49.8445 105.455C49.9645 105.435 50.1095 105.39 50.2795 105.32L50.4895 106.85C50.3295 106.93 50.0845 107.01 49.7545 107.09C49.4245 107.17 49.0845 107.21 48.7345 107.21C48.1645 107.21 47.7295 107.08 47.4295 106.82C47.1295 106.55 46.9795 106.11 46.9795 105.5V96.5H48.9295V104.48ZM57.3286 106.355C57.0286 106.595 56.6186 106.8 56.0986 106.97C55.5886 107.13 55.0436 107.21 54.4636 107.21C53.2536 107.21 52.3686 106.86 51.8086 106.16C51.2486 105.45 50.9686 104.48 50.9686 103.25C50.9686 101.93 51.2836 100.94 51.9136 100.28C52.5436 99.62 53.4286 99.29 54.5686 99.29C54.9486 99.29 55.3186 99.34 55.6786 99.44C56.0386 99.54 56.3586 99.705 56.6386 99.935C56.9186 100.165 57.1436 100.475 57.3136 100.865C57.4836 101.255 57.5686 101.74 57.5686 102.32C57.5686 102.53 57.5536 102.755 57.5236 102.995C57.5036 103.235 57.4686 103.485 57.4186 103.745H52.9186C52.9486 104.375 53.1086 104.85 53.3986 105.17C53.6986 105.49 54.1786 105.65 54.8386 105.65C55.2486 105.65 55.6136 105.59 55.9336 105.47C56.2636 105.34 56.5136 105.21 56.6836 105.08L57.3286 106.355ZM54.5386 100.85C54.0286 100.85 53.6486 101.005 53.3986 101.315C53.1586 101.615 53.0136 102.02 52.9636 102.53H55.7536C55.7936 101.99 55.7086 101.575 55.4986 101.285C55.2986 100.995 54.9786 100.85 54.5386 100.85ZM63.2058 107V102.92C63.2058 102.23 63.1408 101.74 63.0108 101.45C62.8808 101.16 62.6108 101.015 62.2008 101.015C61.8608 101.015 61.5858 101.11 61.3758 101.3C61.1658 101.48 61.0058 101.715 60.8958 102.005V107H58.9458V99.5H60.4608L60.6858 100.49H60.7458C60.9758 100.17 61.2658 99.89 61.6158 99.65C61.9758 99.41 62.4358 99.29 62.9958 99.29C63.4758 99.29 63.8658 99.39 64.1658 99.59C64.4758 99.78 64.7158 100.105 64.8858 100.565C65.1158 100.175 65.4108 99.865 65.7708 99.635C66.1308 99.405 66.5658 99.29 67.0758 99.29C67.4958 99.29 67.8508 99.34 68.1408 99.44C68.4408 99.54 68.6808 99.715 68.8608 99.965C69.0508 100.205 69.1908 100.53 69.2808 100.94C69.3708 101.35 69.4158 101.87 69.4158 102.5V107H67.4658V102.785C67.4658 102.195 67.4008 101.755 67.2708 101.465C67.1508 101.165 66.8758 101.015 66.4458 101.015C66.0958 101.015 65.8158 101.11 65.6058 101.3C65.4058 101.49 65.2558 101.75 65.1558 102.08V107H63.2058ZM77.0161 106.355C76.7161 106.595 76.3061 106.8 75.7861 106.97C75.2761 107.13 74.7311 107.21 74.1511 107.21C72.9411 107.21 72.0561 106.86 71.4961 106.16C70.9361 105.45 70.6561 104.48 70.6561 103.25C70.6561 101.93 70.9711 100.94 71.6011 100.28C72.2311 99.62 73.1161 99.29 74.2561 99.29C74.6361 99.29 75.0061 99.34 75.3661 99.44C75.7261 99.54 76.0461 99.705 76.3261 99.935C76.6061 100.165 76.8311 100.475 77.0011 100.865C77.1711 101.255 77.2561 101.74 77.2561 102.32C77.2561 102.53 77.2411 102.755 77.2111 102.995C77.1911 103.235 77.1561 103.485 77.1061 103.745H72.6061C72.6361 104.375 72.7961 104.85 73.0861 105.17C73.3861 105.49 73.8661 105.65 74.5261 105.65C74.9361 105.65 75.3011 105.59 75.6211 105.47C75.9511 105.34 76.2011 105.21 76.3711 105.08L77.0161 106.355ZM74.2261 100.85C73.7161 100.85 73.3361 101.005 73.0861 101.315C72.8461 101.615 72.7011 102.02 72.6511 102.53H75.4411C75.4811 101.99 75.3961 101.575 75.1861 101.285C74.9861 100.995 74.6661 100.85 74.2261 100.85ZM83.2233 107V102.74C83.2233 102.13 83.1333 101.69 82.9533 101.42C82.7833 101.15 82.4883 101.015 82.0683 101.015C81.6983 101.015 81.3833 101.125 81.1233 101.345C80.8733 101.555 80.6933 101.82 80.5833 102.14V107H78.6333V99.5H80.1783L80.4033 100.49H80.4633C80.6933 100.17 80.9983 99.89 81.3783 99.65C81.7583 99.41 82.2483 99.29 82.8483 99.29C83.2183 99.29 83.5483 99.34 83.8383 99.44C84.1283 99.54 84.3733 99.705 84.5733 99.935C84.7733 100.165 84.9233 100.48 85.0233 100.88C85.1233 101.27 85.1733 101.755 85.1733 102.335V107H83.2233ZM86.0271 99.5H87.0621V98.09L89.0121 97.535V99.5H90.8421V101.15H89.0121V104.03C89.0121 104.55 89.0621 104.925 89.1621 105.155C89.2721 105.375 89.4721 105.485 89.7621 105.485C89.9621 105.485 90.1321 105.465 90.2721 105.425C90.4221 105.385 90.5871 105.325 90.7671 105.245L91.1121 106.745C90.8421 106.875 90.5271 106.985 90.1671 107.075C89.8071 107.165 89.4421 107.21 89.0721 107.21C88.3821 107.21 87.8721 107.035 87.5421 106.685C87.2221 106.325 87.0621 105.74 87.0621 104.93V101.15H86.0271V99.5ZM91.9916 99.935C92.3916 99.755 92.8666 99.615 93.4166 99.515C93.9666 99.405 94.5416 99.35 95.1416 99.35C95.6616 99.35 96.0966 99.415 96.4466 99.545C96.7966 99.665 97.0716 99.84 97.2716 100.07C97.4816 100.3 97.6266 100.575 97.7066 100.895C97.7966 101.215 97.8416 101.575 97.8416 101.975C97.8416 102.415 97.8266 102.86 97.7966 103.31C97.7666 103.75 97.7466 104.185 97.7366 104.615C97.7366 105.045 97.7516 105.465 97.7816 105.875C97.8116 106.275 97.8866 106.655 98.0066 107.015H96.4166L96.1016 105.98H96.0266C95.8266 106.29 95.5466 106.56 95.1866 106.79C94.8366 107.01 94.3816 107.12 93.8216 107.12C93.4716 107.12 93.1566 107.07 92.8766 106.97C92.5966 106.86 92.3566 106.71 92.1566 106.52C91.9566 106.32 91.8016 106.09 91.6916 105.83C91.5816 105.56 91.5266 105.26 91.5266 104.93C91.5266 104.47 91.6266 104.085 91.8266 103.775C92.0366 103.455 92.3316 103.2 92.7116 103.01C93.1016 102.81 93.5616 102.675 94.0916 102.605C94.6316 102.525 95.2316 102.5 95.8916 102.53C95.9616 101.97 95.9216 101.57 95.7716 101.33C95.6216 101.08 95.2866 100.955 94.7666 100.955C94.3766 100.955 93.9616 100.995 93.5216 101.075C93.0916 101.155 92.7366 101.26 92.4566 101.39L91.9916 99.935ZM94.4666 105.515C94.8566 105.515 95.1666 105.43 95.3966 105.26C95.6266 105.08 95.7966 104.89 95.9066 104.69V103.715C95.5966 103.685 95.2966 103.68 95.0066 103.7C94.7266 103.72 94.4766 103.765 94.2566 103.835C94.0366 103.905 93.8616 104.005 93.7316 104.135C93.6016 104.265 93.5366 104.43 93.5366 104.63C93.5366 104.91 93.6166 105.13 93.7766 105.29C93.9466 105.44 94.1766 105.515 94.4666 105.515ZM103.618 101.33C103.308 101.22 103.028 101.165 102.778 101.165C102.428 101.165 102.133 101.26 101.893 101.45C101.663 101.63 101.508 101.865 101.428 102.155V107H99.478V99.5H100.993L101.218 100.49H101.278C101.448 100.12 101.678 99.835 101.968 99.635C102.258 99.435 102.598 99.335 102.988 99.335C103.248 99.335 103.543 99.39 103.873 99.5L103.618 101.33ZM110.737 106.355C110.437 106.595 110.027 106.8 109.507 106.97C108.997 107.13 108.452 107.21 107.872 107.21C106.662 107.21 105.777 106.86 105.217 106.16C104.657 105.45 104.377 104.48 104.377 103.25C104.377 101.93 104.692 100.94 105.322 100.28C105.952 99.62 106.837 99.29 107.977 99.29C108.357 99.29 108.727 99.34 109.087 99.44C109.447 99.54 109.767 99.705 110.047 99.935C110.327 100.165 110.552 100.475 110.722 100.865C110.892 101.255 110.977 101.74 110.977 102.32C110.977 102.53 110.962 102.755 110.932 102.995C110.912 103.235 110.877 103.485 110.827 103.745H106.327C106.357 104.375 106.517 104.85 106.807 105.17C107.107 105.49 107.587 105.65 108.247 105.65C108.657 105.65 109.022 105.59 109.342 105.47C109.672 105.34 109.922 105.21 110.092 105.08L110.737 106.355ZM107.947 100.85C107.437 100.85 107.057 101.005 106.807 101.315C106.567 101.615 106.422 102.02 106.372 102.53H109.162C109.202 101.99 109.117 101.575 108.907 101.285C108.707 100.995 108.387 100.85 107.947 100.85ZM115.459 104.93C115.459 104.73 115.374 104.57 115.204 104.45C115.034 104.33 114.824 104.22 114.574 104.12C114.324 104.02 114.049 103.92 113.749 103.82C113.449 103.71 113.174 103.565 112.924 103.385C112.674 103.195 112.464 102.96 112.294 102.68C112.124 102.39 112.039 102.02 112.039 101.57C112.039 100.83 112.259 100.265 112.699 99.875C113.139 99.485 113.774 99.29 114.604 99.29C115.174 99.29 115.689 99.35 116.149 99.47C116.609 99.59 116.969 99.725 117.229 99.875L116.794 101.285C116.564 101.195 116.274 101.1 115.924 101C115.574 100.9 115.219 100.85 114.859 100.85C114.279 100.85 113.989 101.075 113.989 101.525C113.989 101.705 114.074 101.85 114.244 101.96C114.414 102.07 114.624 102.175 114.874 102.275C115.124 102.365 115.399 102.465 115.699 102.575C115.999 102.685 116.274 102.83 116.524 103.01C116.774 103.18 116.984 103.405 117.154 103.685C117.324 103.965 117.409 104.325 117.409 104.765C117.409 105.525 117.164 106.125 116.674 106.565C116.194 106.995 115.469 107.21 114.499 107.21C113.969 107.21 113.469 107.14 112.999 107C112.539 106.87 112.164 106.715 111.874 106.535L112.414 105.08C112.644 105.21 112.949 105.34 113.329 105.47C113.709 105.59 114.099 105.65 114.499 105.65C114.789 105.65 115.019 105.595 115.189 105.485C115.369 105.375 115.459 105.19 115.459 104.93Z" fill="black"/>
<path d="M81.0038 46C81.006 47.7813 82.2589 49.3162 84.0038 49.675V52.75C84.0038 53.9926 85.0111 55 86.2538 55H116.254C118.324 54.9975 120.001 53.32 120.004 51.25V13.75C120.001 11.68 118.324 10.0025 116.254 10H86.2538C85.0111 10 84.0038 11.0074 84.0038 12.25V15.325C82.256 15.6799 81 17.2166 81 19C81 20.7834 82.256 22.3201 84.0038 22.675V24.325C82.256 24.6799 81 26.2166 81 28C81 29.7834 82.256 31.3201 84.0038 31.675V33.325C82.256 33.6799 81 35.2166 81 37C81 38.7834 82.256 40.3201 84.0038 40.675V42.325C82.2589 42.6838 81.006 44.2187 81.0038 46ZM82.5038 46C82.5077 45.0499 83.108 44.2047 84.0038 43.888V48.112C83.108 47.7953 82.5077 46.9501 82.5038 46ZM118.504 13.75V51.25C118.504 52.4926 117.496 53.5 116.254 53.5H91.5038V11.5H116.254C117.496 11.5 118.504 12.5074 118.504 13.75ZM86.2538 11.5H90.0038V53.5H86.2538C85.8395 53.5 85.5038 53.1642 85.5038 52.75V43.888C86.3995 44.2047 86.9998 45.0499 87.0038 46C87.0038 46.4142 87.3395 46.75 87.7538 46.75C88.168 46.75 88.5038 46.4142 88.5038 46C88.5015 44.2187 87.2486 42.6838 85.5038 42.325V34.888C86.3995 35.2047 86.9998 36.0499 87.0038 37C87.0038 37.4142 87.3395 37.75 87.7538 37.75C88.168 37.75 88.5038 37.4142 88.5038 37C88.5015 35.2187 87.2486 33.6838 85.5038 33.325V25.888C86.3995 26.2047 86.9998 27.0499 87.0038 28C87.0038 28.4142 87.3395 28.75 87.7538 28.75C88.168 28.75 88.5038 28.4142 88.5038 28C88.5015 26.2187 87.2486 24.6838 85.5038 24.325V16.888C86.3995 17.2047 86.9998 18.0499 87.0038 19C87.0038 19.4142 87.3395 19.75 87.7538 19.75C88.168 19.75 88.5038 19.4142 88.5038 19C88.5015 17.2187 87.2486 15.6838 85.5038 15.325V12.25C85.5038 11.8358 85.8395 11.5 86.2538 11.5ZM82.5038 19C82.5077 18.0499 83.108 17.2047 84.0038 16.888V21.112C83.108 20.7953 82.5077 19.9501 82.5038 19ZM82.5038 28C82.5077 27.0499 83.108 26.2047 84.0038 25.888V30.112C83.108 29.7953 82.5077 28.9501 82.5038 28ZM82.5038 37C82.5077 36.0499 83.108 35.2047 84.0038 34.888V39.112C83.108 38.7953 82.5077 37.9501 82.5038 37Z" fill="#0050F2"/>
<path d="M94.8637 24.58L97.5037 25.2887V30.1465C94.0281 33.2573 92.8327 38.1902 94.4986 42.547C96.1645 46.9038 100.346 49.7807 105.011 49.7791C109.675 49.7775 113.855 46.8976 115.517 42.5397C117.18 38.1817 115.981 33.2496 112.504 30.1412V25.2887L114.004 24.886V26.7025V26.7077C114.002 27.478 114.387 28.1976 115.029 28.624C115.252 28.7727 115.537 28.7912 115.777 28.6725C116.018 28.5538 116.176 28.3159 116.194 28.0485C116.211 27.781 116.084 27.5247 115.861 27.376C115.638 27.2273 115.503 26.9764 115.504 26.7077V26.7025V24.4172C116.029 24.1141 116.32 23.5248 116.241 22.9237C116.162 22.3226 115.73 21.8279 115.144 21.67L105.389 19.051C105.137 18.9835 104.871 18.9835 104.618 19.051L94.8637 21.67C94.2077 21.8491 93.7527 22.445 93.7527 23.125C93.7527 23.805 94.2077 24.4009 94.8637 24.58ZM114.754 38.5C114.767 42.9788 111.727 46.8905 107.384 47.9838C103.041 49.0771 98.511 47.0708 96.4022 43.1195C94.2933 39.1683 95.1477 34.2885 98.4735 31.2887C98.9767 31.549 99.5059 31.7558 100.052 31.906C97.2131 34.0376 96.0561 37.7465 97.1796 41.1143C98.3032 44.4821 101.455 46.7535 105.006 46.7535C108.556 46.7535 111.708 44.4821 112.832 41.1143C113.955 37.7465 112.798 34.0376 109.959 31.906C110.506 31.7553 111.036 31.5476 111.539 31.2865C113.586 33.1256 114.755 35.7482 114.754 38.5ZM107.744 32.3447C109.932 33.3124 111.439 35.372 111.698 37.75H111.004C110.589 37.75 110.254 38.0858 110.254 38.5C110.254 38.9142 110.589 39.25 111.004 39.25H111.709C111.355 42.3806 108.884 44.851 105.754 45.2057V44.5C105.754 44.0858 105.418 43.75 105.004 43.75C104.589 43.75 104.254 44.0858 104.254 44.5V45.2057C101.123 44.851 98.6527 42.3806 98.298 39.25H99.0037C99.4179 39.25 99.7537 38.9142 99.7537 38.5C99.7537 38.0858 99.4179 37.75 99.0037 37.75H98.3092C98.5672 35.3687 100.078 33.307 102.271 32.344C103.181 32.4515 104.096 32.5036 105.011 32.5C105.925 32.5034 106.837 32.4516 107.744 32.3447ZM111.004 29.8652C110.425 30.214 108.708 31 105.011 31C101.314 31 99.579 30.208 99.0037 29.8652V25.6915L104.618 27.199C104.871 27.267 105.137 27.267 105.389 27.199L111.004 25.6915V29.8652ZM105 20.5L114.764 23.125H114.754L105.007 25.75L95.2537 23.119L105 20.5Z" fill="#0050F2"/>
<path d="M105.004 36.2501C103.761 36.2501 102.754 37.2574 102.754 38.5001C102.754 39.7427 103.761 40.7501 105.004 40.7501C106.246 40.7501 107.254 39.7427 107.254 38.5001C107.252 38.1659 107.176 37.8365 107.029 37.5363L108.535 36.0303C108.819 35.736 108.815 35.2682 108.526 34.9789C108.236 34.6896 107.769 34.6856 107.474 34.9698L105.968 36.4751C105.667 36.3283 105.338 36.2514 105.004 36.2501ZM105.004 39.2501C104.665 39.2501 104.369 39.0233 104.28 38.6966C104.191 38.3699 104.332 38.0242 104.624 37.853C104.916 37.6818 105.287 37.7275 105.529 37.9646L105.534 37.9728L105.542 37.9781C105.752 38.1943 105.812 38.5151 105.694 38.7925C105.577 39.0698 105.305 39.2501 105.004 39.2501Z" fill="#0050F2"/>
</svg>
