<svg width="60" height="60" viewBox="0 0 60 60" fill="none" xmlns="http://www.w3.org/2000/svg">
<circle cx="30" cy="30" r="29" fill="#0050F2" stroke="#0050F2" stroke-width="2"/>
<mask id="path-2-inside-1" fill="white">
<path d="M43 29.381H30.619V17H29.381V29.381H17V30.619H29.381V43H30.619V30.619H43V29.381Z"/>
</mask>
<path d="M43 29.381H30.619V17H29.381V29.381H17V30.619H29.381V43H30.619V30.619H43V29.381Z" fill="white"/>
<path d="M43 29.381H48V24.381H43V29.381ZM30.619 29.381H25.619V34.381H30.619V29.381ZM30.619 17H35.619V12H30.619V17ZM29.381 17V12H24.381V17H29.381ZM29.381 29.381V34.381H34.381V29.381H29.381ZM17 29.381V24.381H12V29.381H17ZM17 30.619H12V35.619H17V30.619ZM29.381 30.619H34.381V25.619H29.381V30.619ZM29.381 43H24.381V48H29.381V43ZM30.619 43V48H35.619V43H30.619ZM30.619 30.619V25.619H25.619V30.619H30.619ZM43 30.619V35.619H48V30.619H43ZM43 24.381H30.619V34.381H43V24.381ZM35.619 29.381V17H25.619V29.381H35.619ZM30.619 12H29.381V22H30.619V12ZM24.381 17V29.381H34.381V17H24.381ZM29.381 24.381H17V34.381H29.381V24.381ZM12 29.381V30.619H22V29.381H12ZM17 35.619H29.381V25.619H17V35.619ZM24.381 30.619V43H34.381V30.619H24.381ZM29.381 48H30.619V38H29.381V48ZM35.619 43V30.619H25.619V43H35.619ZM30.619 35.619H43V25.619H30.619V35.619ZM48 30.619V29.381H38V30.619H48Z" fill="white" mask="url(#path-2-inside-1)"/>
</svg>
