<svg width="130" height="130" viewBox="0 0 130 130" fill="none" xmlns="http://www.w3.org/2000/svg">
<path d="M1 8C1 4.13401 4.13401 1 8 1H122C125.866 1 129 4.13401 129 8V122C129 125.866 125.866 129 122 129H8C4.13401 129 1 125.866 1 122V8Z" fill="white" stroke="#0050F2" stroke-width="2"/>
<path d="M16.516 87.616C16.516 87.232 16.372 86.92 16.084 86.68C15.808 86.44 15.454 86.224 15.022 86.032C14.602 85.828 14.14 85.624 13.636 85.42C13.144 85.204 12.682 84.946 12.25 84.646C11.83 84.334 11.476 83.95 11.188 83.494C10.912 83.038 10.774 82.456 10.774 81.748C10.774 81.136 10.876 80.608 11.08 80.164C11.284 79.708 11.572 79.33 11.944 79.03C12.328 78.73 12.778 78.508 13.294 78.364C13.81 78.22 14.386 78.148 15.022 78.148C15.754 78.148 16.444 78.214 17.092 78.346C17.74 78.466 18.274 78.646 18.694 78.886L17.92 80.956C17.656 80.788 17.26 80.638 16.732 80.506C16.204 80.362 15.634 80.29 15.022 80.29C14.446 80.29 14.002 80.404 13.69 80.632C13.39 80.86 13.24 81.166 13.24 81.55C13.24 81.91 13.378 82.21 13.654 82.45C13.942 82.69 14.296 82.912 14.716 83.116C15.148 83.32 15.61 83.53 16.102 83.746C16.606 83.962 17.068 84.226 17.488 84.538C17.92 84.838 18.274 85.216 18.55 85.672C18.838 86.116 18.982 86.674 18.982 87.346C18.982 88.018 18.868 88.6 18.64 89.092C18.424 89.572 18.112 89.974 17.704 90.298C17.308 90.622 16.822 90.862 16.246 91.018C15.682 91.174 15.058 91.252 14.374 91.252C13.474 91.252 12.682 91.168 11.998 91C11.314 90.832 10.81 90.664 10.486 90.496L11.278 88.39C11.41 88.462 11.578 88.54 11.782 88.624C11.998 88.708 12.238 88.786 12.502 88.858C12.766 88.93 13.042 88.99 13.33 89.038C13.63 89.086 13.936 89.11 14.248 89.11C14.98 89.11 15.538 88.99 15.922 88.75C16.318 88.498 16.516 88.12 16.516 87.616ZM22.8209 82V87.112C22.8209 87.844 22.9049 88.372 23.0729 88.696C23.2529 89.02 23.5949 89.182 24.0989 89.182C24.5429 89.182 24.9089 89.05 25.1969 88.786C25.4969 88.522 25.7189 88.198 25.8629 87.814V82H28.2029V88.264C28.2029 88.756 28.2269 89.242 28.2749 89.722C28.3229 90.19 28.3949 90.616 28.4909 91H26.7269L26.3129 89.668H26.2409C25.9649 90.124 25.5809 90.502 25.0889 90.802C24.5969 91.102 24.0149 91.252 23.3429 91.252C22.8869 91.252 22.4789 91.192 22.1189 91.072C21.7589 90.952 21.4589 90.754 21.2189 90.478C20.9789 90.202 20.7929 89.83 20.6609 89.362C20.5409 88.894 20.4809 88.306 20.4809 87.598V82H22.8209ZM37.8705 91C37.8705 92.308 37.5165 93.268 36.8085 93.88C36.1005 94.504 35.1105 94.816 33.8385 94.816C32.9745 94.816 32.2905 94.756 31.7865 94.636C31.2945 94.516 30.9225 94.39 30.6705 94.258L31.1565 92.404C31.4325 92.512 31.7505 92.62 32.1105 92.728C32.4825 92.836 32.9385 92.89 33.4785 92.89C34.2945 92.89 34.8465 92.71 35.1345 92.35C35.4345 92.002 35.5845 91.51 35.5845 90.874V90.298H35.5125C35.0925 90.862 34.3485 91.144 33.2805 91.144C32.1165 91.144 31.2465 90.784 30.6705 90.064C30.1065 89.344 29.8245 88.216 29.8245 86.68C29.8245 85.072 30.2085 83.854 30.9765 83.026C31.7445 82.198 32.8605 81.784 34.3245 81.784C35.0925 81.784 35.7765 81.838 36.3765 81.946C36.9885 82.054 37.4865 82.18 37.8705 82.324V91ZM33.9105 89.272C34.3665 89.272 34.7145 89.17 34.9545 88.966C35.2065 88.762 35.3985 88.456 35.5305 88.048V83.998C35.1585 83.842 34.6965 83.764 34.1445 83.764C33.5445 83.764 33.0765 83.992 32.7405 84.448C32.4045 84.892 32.2365 85.606 32.2365 86.59C32.2365 87.466 32.3805 88.132 32.6685 88.588C32.9565 89.044 33.3705 89.272 33.9105 89.272ZM47.1069 90.226C46.7469 90.514 46.2549 90.76 45.6309 90.964C45.0189 91.156 44.3649 91.252 43.6689 91.252C42.2169 91.252 41.1549 90.832 40.4829 89.992C39.8109 89.14 39.4749 87.976 39.4749 86.5C39.4749 84.916 39.8529 83.728 40.6089 82.936C41.3649 82.144 42.4269 81.748 43.7949 81.748C44.2509 81.748 44.6949 81.808 45.1269 81.928C45.5589 82.048 45.9429 82.246 46.2789 82.522C46.6149 82.798 46.8849 83.17 47.0889 83.638C47.2929 84.106 47.3949 84.688 47.3949 85.384C47.3949 85.636 47.3769 85.906 47.3409 86.194C47.3169 86.482 47.2749 86.782 47.2149 87.094H41.8149C41.8509 87.85 42.0429 88.42 42.3909 88.804C42.7509 89.188 43.3269 89.38 44.1189 89.38C44.6109 89.38 45.0489 89.308 45.4329 89.164C45.8289 89.008 46.1289 88.852 46.3329 88.696L47.1069 90.226ZM43.7589 83.62C43.1469 83.62 42.6909 83.806 42.3909 84.178C42.1029 84.538 41.9289 85.024 41.8689 85.636H45.2169C45.2649 84.988 45.1629 84.49 44.9109 84.142C44.6709 83.794 44.2869 83.62 43.7589 83.62ZM52.7735 88.516C52.7735 88.276 52.6715 88.084 52.4675 87.94C52.2635 87.796 52.0115 87.664 51.7115 87.544C51.4115 87.424 51.0815 87.304 50.7215 87.184C50.3615 87.052 50.0315 86.878 49.7315 86.662C49.4315 86.434 49.1795 86.152 48.9755 85.816C48.7715 85.468 48.6695 85.024 48.6695 84.484C48.6695 83.596 48.9335 82.918 49.4615 82.45C49.9895 81.982 50.7515 81.748 51.7475 81.748C52.4315 81.748 53.0495 81.82 53.6015 81.964C54.1535 82.108 54.5855 82.27 54.8975 82.45L54.3755 84.142C54.0995 84.034 53.7515 83.92 53.3315 83.8C52.9115 83.68 52.4855 83.62 52.0535 83.62C51.3575 83.62 51.0095 83.89 51.0095 84.43C51.0095 84.646 51.1115 84.82 51.3155 84.952C51.5195 85.084 51.7715 85.21 52.0715 85.33C52.3715 85.438 52.7015 85.558 53.0615 85.69C53.4215 85.822 53.7515 85.996 54.0515 86.212C54.3515 86.416 54.6035 86.686 54.8075 87.022C55.0115 87.358 55.1135 87.79 55.1135 88.318C55.1135 89.23 54.8195 89.95 54.2315 90.478C53.6555 90.994 52.7855 91.252 51.6215 91.252C50.9855 91.252 50.3855 91.168 49.8215 91C49.2695 90.844 48.8195 90.658 48.4715 90.442L49.1195 88.696C49.3955 88.852 49.7615 89.008 50.2175 89.164C50.6735 89.308 51.1415 89.38 51.6215 89.38C51.9695 89.38 52.2455 89.314 52.4495 89.182C52.6655 89.05 52.7735 88.828 52.7735 88.516ZM55.7052 82H56.9472V80.308L59.2872 79.642V82H61.4832V83.98H59.2872V87.436C59.2872 88.06 59.3472 88.51 59.4672 88.786C59.5992 89.05 59.8392 89.182 60.1872 89.182C60.4272 89.182 60.6312 89.158 60.7992 89.11C60.9792 89.062 61.1772 88.99 61.3932 88.894L61.8072 90.694C61.4832 90.85 61.1052 90.982 60.6732 91.09C60.2412 91.198 59.8032 91.252 59.3592 91.252C58.5312 91.252 57.9192 91.042 57.5232 90.622C57.1392 90.19 56.9472 89.488 56.9472 88.516V83.98H55.7052V82ZM62.3967 86.5C62.3967 84.976 62.7687 83.806 63.5127 82.99C64.2567 82.162 65.3007 81.748 66.6447 81.748C67.3647 81.748 67.9887 81.862 68.5167 82.09C69.0447 82.318 69.4827 82.642 69.8307 83.062C70.1787 83.47 70.4367 83.968 70.6047 84.556C70.7847 85.144 70.8747 85.792 70.8747 86.5C70.8747 88.024 70.5027 89.2 69.7587 90.028C69.0267 90.844 67.9887 91.252 66.6447 91.252C65.9247 91.252 65.3007 91.138 64.7727 90.91C64.2447 90.682 63.8007 90.364 63.4407 89.956C63.0927 89.536 62.8287 89.032 62.6487 88.444C62.4807 87.856 62.3967 87.208 62.3967 86.5ZM64.8087 86.5C64.8087 86.896 64.8447 87.262 64.9167 87.598C64.9887 87.934 65.0967 88.228 65.2407 88.48C65.3847 88.732 65.5707 88.93 65.7987 89.074C66.0387 89.206 66.3207 89.272 66.6447 89.272C67.2567 89.272 67.7127 89.05 68.0127 88.606C68.3127 88.162 68.4627 87.46 68.4627 86.5C68.4627 85.672 68.3247 85.006 68.0487 84.502C67.7727 83.986 67.3047 83.728 66.6447 83.728C66.0687 83.728 65.6187 83.944 65.2947 84.376C64.9707 84.808 64.8087 85.516 64.8087 86.5ZM63.6747 79.156C64.0467 78.712 64.3887 78.406 64.7007 78.238C65.0247 78.07 65.3307 77.986 65.6187 77.986C65.8587 77.986 66.0867 78.028 66.3027 78.112C66.5307 78.196 66.7527 78.286 66.9687 78.382C67.1847 78.478 67.3947 78.568 67.5987 78.652C67.8027 78.736 68.0127 78.778 68.2287 78.778C68.3967 78.778 68.5647 78.742 68.7327 78.67C68.9127 78.598 69.0987 78.472 69.2907 78.292L69.6507 79.552C69.3027 79.936 68.9787 80.2 68.6787 80.344C68.3907 80.488 68.1087 80.56 67.8327 80.56C67.5927 80.56 67.3587 80.524 67.1307 80.452C66.9027 80.368 66.6807 80.278 66.4647 80.182C66.2487 80.086 66.0327 80.002 65.8167 79.93C65.6007 79.846 65.3847 79.804 65.1687 79.804C64.9887 79.804 64.8027 79.846 64.6107 79.93C64.4187 80.002 64.2207 80.134 64.0167 80.326L63.6747 79.156ZM79.6967 90.226C79.3367 90.514 78.8447 90.76 78.2207 90.964C77.6087 91.156 76.9547 91.252 76.2587 91.252C74.8067 91.252 73.7447 90.832 73.0727 89.992C72.4007 89.14 72.0647 87.976 72.0647 86.5C72.0647 84.916 72.4427 83.728 73.1987 82.936C73.9547 82.144 75.0167 81.748 76.3847 81.748C76.8407 81.748 77.2847 81.808 77.7167 81.928C78.1487 82.048 78.5327 82.246 78.8687 82.522C79.2047 82.798 79.4747 83.17 79.6787 83.638C79.8827 84.106 79.9847 84.688 79.9847 85.384C79.9847 85.636 79.9667 85.906 79.9307 86.194C79.9067 86.482 79.8647 86.782 79.8047 87.094H74.4047C74.4407 87.85 74.6327 88.42 74.9807 88.804C75.3407 89.188 75.9167 89.38 76.7087 89.38C77.2007 89.38 77.6387 89.308 78.0227 89.164C78.4187 89.008 78.7187 88.852 78.9227 88.696L79.6967 90.226ZM76.3487 83.62C75.7367 83.62 75.2807 83.806 74.9807 84.178C74.6927 84.538 74.5187 85.024 74.4587 85.636H77.8067C77.8547 84.988 77.7527 84.49 77.5007 84.142C77.2607 83.794 76.8767 83.62 76.3487 83.62ZM85.3633 88.516C85.3633 88.276 85.2613 88.084 85.0573 87.94C84.8533 87.796 84.6013 87.664 84.3013 87.544C84.0013 87.424 83.6713 87.304 83.3113 87.184C82.9513 87.052 82.6213 86.878 82.3213 86.662C82.0213 86.434 81.7693 86.152 81.5653 85.816C81.3613 85.468 81.2593 85.024 81.2593 84.484C81.2593 83.596 81.5233 82.918 82.0513 82.45C82.5793 81.982 83.3413 81.748 84.3373 81.748C85.0213 81.748 85.6393 81.82 86.1913 81.964C86.7433 82.108 87.1753 82.27 87.4873 82.45L86.9653 84.142C86.6893 84.034 86.3413 83.92 85.9213 83.8C85.5013 83.68 85.0753 83.62 84.6433 83.62C83.9473 83.62 83.5993 83.89 83.5993 84.43C83.5993 84.646 83.7013 84.82 83.9053 84.952C84.1093 85.084 84.3613 85.21 84.6613 85.33C84.9613 85.438 85.2913 85.558 85.6513 85.69C86.0113 85.822 86.3413 85.996 86.6413 86.212C86.9413 86.416 87.1933 86.686 87.3973 87.022C87.6013 87.358 87.7033 87.79 87.7033 88.318C87.7033 89.23 87.4093 89.95 86.8213 90.478C86.2453 90.994 85.3753 91.252 84.2113 91.252C83.5753 91.252 82.9753 91.168 82.4113 91C81.8593 90.844 81.4093 90.658 81.0613 90.442L81.7093 88.696C81.9853 88.852 82.3513 89.008 82.8073 89.164C83.2633 89.308 83.7313 89.38 84.2113 89.38C84.5593 89.38 84.8353 89.314 85.0393 89.182C85.2553 89.05 85.3633 88.828 85.3633 88.516Z" fill="black"/>
<path d="M118.5 47.5007H118.335L118.012 46.2048C117.761 45.2033 116.861 44.5008 115.828 44.501H113.917C112.163 44.5159 110.417 44.2589 108.742 43.7391C115.794 38.45 118.208 28.9617 114.54 20.946C110.872 12.9303 102.113 8.55377 93.4997 10.4325C84.8864 12.3112 78.7464 19.9375 78.75 28.7525C78.7361 34.655 81.5207 40.2148 86.256 43.7391C84.5815 44.2587 82.8365 44.5157 81.0833 44.501H79.1715C78.139 44.5008 77.2388 45.2033 76.9883 46.2048L76.665 47.5007H76.5C75.6716 47.5007 75 48.1722 75 49.0006V50.5004C75 51.3288 75.6716 52.0003 76.5 52.0003H91.3815C91.9394 52.022 92.446 52.3318 92.7195 52.8185C93.5602 54.1436 95.4368 55 97.5 55C99.5632 55 101.44 54.1436 102.281 52.8185C102.554 52.3318 103.061 52.022 103.618 52.0003H118.5C119.328 52.0003 120 51.3288 120 50.5004V49.0006C120 48.1722 119.328 47.5007 118.5 47.5007ZM107.062 43.0889C105.79 42.5466 104.423 42.266 103.04 42.264C102.553 41.8563 102.213 41.3002 102.073 40.6809C101.868 39.789 102.08 38.8523 102.65 38.1362C103.22 37.42 104.085 37.0024 105 37.0017C105.364 36.9888 105.727 37.0493 106.067 37.1795C106.842 37.5242 107.749 37.3574 108.35 36.7595L108.409 36.7017C109.16 35.9789 109.24 34.8037 108.592 33.9863C107.524 32.2301 107.809 29.9687 109.28 28.5328C110.534 27.2797 112.078 27.2137 113.413 27.2527C113.849 27.2728 114.28 27.3466 114.698 27.4724C114.729 27.8953 114.75 28.3213 114.75 28.7525C114.762 34.5203 111.873 39.9077 107.062 43.0889ZM105.758 13.6167C104.063 15.7964 101.542 17.1786 98.793 17.4361C97.6401 17.5479 96.758 18.5127 96.75 19.6709V22.0032C96.75 23.2457 97.7574 24.2529 99 24.2529H100.417C100.782 24.2383 101.112 24.4665 101.227 24.8124C101.297 25.0734 101.218 25.3521 101.021 25.5368C100.884 25.6768 100.696 25.7548 100.5 25.7528H99.2775C98.3486 25.7544 97.5161 26.3267 97.182 27.1934L94.1318 35.1269C94.0246 35.4037 93.7285 35.5578 93.4403 35.4869C93.1639 35.3882 92.9849 35.12 93 34.8269V28.7525C93 27.51 91.9926 26.5027 90.75 26.5027H89.415C87.8314 26.534 86.4763 25.3726 86.265 23.803C86.1821 22.9599 86.4589 22.121 87.0273 21.4927C87.5956 20.8644 88.4028 20.5052 89.25 20.5033C90.2452 20.5349 91.2227 20.2355 92.0295 19.6521C92.6138 19.2036 92.9398 18.4963 92.9013 17.7607C92.8628 17.0252 92.4647 16.3558 91.8368 15.9707C90.8274 15.3604 89.9459 14.5602 89.241 13.6145C94.3873 10.8012 100.612 10.8012 105.758 13.6145V13.6167ZM80.25 28.7525C80.2523 22.977 83.146 17.5861 87.9585 14.3921C88.7904 15.5441 89.8453 16.5173 91.0605 17.2539C91.2653 17.3768 91.3943 17.5948 91.4032 17.8336C91.4207 18.0753 91.3153 18.3095 91.1227 18.4567C90.577 18.8428 89.9178 19.0353 89.25 19.0034C87.9801 19.0043 86.7695 19.541 85.9161 20.4814C85.0627 21.4218 84.6458 22.6785 84.768 23.9425C85.0573 26.2814 87.0581 28.0296 89.415 28.0026H90.75C91.1642 28.0026 91.5 28.3383 91.5 28.7525V34.8269C91.4826 35.8161 92.1421 36.6896 93.0983 36.944C94.114 37.1886 95.1539 36.6435 95.5305 35.6691L98.5837 27.7296C98.694 27.4424 98.9698 27.2527 99.2775 27.2527H100.5C101.095 27.2568 101.666 27.0198 102.083 26.5957C102.651 26.0389 102.879 25.2217 102.682 24.4509C102.405 23.4333 101.472 22.7338 100.417 22.7531H99C98.5858 22.7531 98.25 22.4173 98.25 22.0032V19.6709C98.2569 19.2764 98.5624 18.9518 98.9557 18.9209C102.168 18.6139 105.102 16.9703 107.042 14.3921C111.004 17.0276 113.704 21.1805 114.505 25.8713C114.158 25.8051 113.807 25.7655 113.455 25.7528C111.542 25.5387 109.63 26.1663 108.217 27.4724C106.202 29.4315 105.856 32.543 107.392 34.8967C107.569 35.1105 107.556 35.4233 107.363 35.6226L107.284 35.7021C107.116 35.865 106.865 35.906 106.655 35.8048C106.129 35.5925 105.566 35.4894 105 35.5019C103.631 35.5022 102.337 36.1249 101.482 37.1941C100.628 38.2633 100.306 39.663 100.607 40.9981C100.713 41.4814 100.902 41.9427 101.165 42.3615C99.7993 42.4698 98.5089 43.0324 97.5 43.9596C96.732 43.1789 95.199 42.2512 92.25 42.2512C90.7696 42.2215 89.2998 42.5071 87.9382 43.0889C83.1267 39.9077 80.2375 34.5203 80.25 28.7525ZM78.4433 46.5693C78.5266 46.2351 78.827 46.0006 79.1715 46.0009H81.0833C83.6398 46.0371 86.1735 45.516 88.5082 44.474C89.6887 43.9659 90.9652 43.7192 92.25 43.7511C96.0683 43.7511 96.7658 45.4332 96.789 45.4879C96.8909 45.7859 97.1693 45.9874 97.4842 45.9911C97.8052 46.0044 98.0974 45.8071 98.205 45.5044C98.2343 45.4332 98.9317 43.7511 102.75 43.7511C104.035 43.7193 105.311 43.966 106.491 44.474C108.826 45.5162 111.36 46.0372 113.917 46.0009H115.828C116.173 46.0006 116.473 46.2351 116.557 46.5693L116.79 47.5007H78.21L78.4433 46.5693ZM118.5 50.5004H103.618C102.547 50.5239 101.564 51.096 101.014 52.0153C100.451 52.9002 99.0382 53.5001 97.5 53.5001C95.9618 53.5001 94.5495 52.9002 93.9862 52.0153C93.4363 51.096 92.4525 50.5239 91.3815 50.5004H76.5V49.0006H118.5V50.5004Z" fill="#0050F2"/>
</svg>
