<svg width="18" height="24" viewBox="0 0 18 24" fill="none" xmlns="http://www.w3.org/2000/svg">
<path d="M8.99963 0C4.03747 0 0 3.96381 0 8.83593C0 10.1068 0.264945 11.3201 0.787079 12.4426C3.03724 17.2767 7.35141 22.3804 8.62035 23.8293C8.71542 23.9376 8.85402 24 8.99988 24C9.14573 24 9.28434 23.9376 9.37941 23.8293C10.6478 22.3806 14.962 17.2771 17.2129 12.4426C17.7353 11.3201 18 10.1068 18 8.83593C17.9995 3.96381 13.962 0 8.99963 0ZM8.99963 13.4253C6.42198 13.4253 4.32468 11.3663 4.32468 8.83568C4.32468 6.30481 6.42198 4.24578 8.99963 4.24578C11.5773 4.24578 13.6746 6.30481 13.6746 8.83568C13.6748 11.3663 11.5775 13.4253 8.99963 13.4253Z" fill="#D4D4D4"/>
</svg>
